<?xml version="1.0" encoding="utf-8"?>
<!-- Generator: Adobe Illustrator 26.5.1, SVG Export Plug-In . SVG Version: 6.00 Build 0)  -->
<svg version="1.1" id="Layer_1" xmlns="http://www.w3.org/2000/svg" xmlns:xlink="http://www.w3.org/1999/xlink" x="0px" y="0px"
	 viewBox="0 0 350 350" style="enable-background:new 0 0 350 350;" xml:space="preserve">
<g>
	<path d="M61.4,128.2c5.2-7.7,10.5-15.2,15.6-23c3.9-6.1,8.3-11.3,16.2-12.1c0-7.7,0-15.3,0-22.8c0-1.7,0.1-3.4,0.6-4.9
		c1.3-4,5-6.7,9.3-6.9c0.8,0,1.5,0,2.3,0c48.6,0,97.2,0,145.8,0c8,0,12,4,12.1,12c0,7.4,0,14.9,0,22.5c1.2,0.3,2.3,0.5,3.3,0.9
		c4.2,1.2,7.5,3.7,9.9,7.2c6,8.7,11.9,17.5,17.8,26.2c0.5,0.8,0.8,2,0.8,3c0.1,4.4,0.1,8.8,0,13.2c-0.1,11.7-9.9,19.1-21.1,15.9
		c-0.4-0.1-0.7-0.1-1.3-0.2c0,0.9,0,1.8,0,2.6c0,18.9,0,37.9,0,56.8c0,0.8,0.1,1.5-0.1,2.3c-0.3,1.9-1.5,3-3.4,3
		c-1.9,0-3.1-1.2-3.3-3.1c-0.1-0.7,0-1.4,0-2.1c0-20.2,0-40.4,0-60.7c0-0.8,0-1.6,0-2.9c-3.7,3.4-7.7,5.3-12.5,5.2
		c-4.8-0.2-8.8-2.2-12.1-6c-3.4,3.7-7.4,6-12.5,6c-5.1,0-9.2-2.1-12.7-6c-3.4,3.8-7.5,6-12.6,6c-5.1,0-9.2-2.1-12.6-5.9
		c-7.7,8.2-18.3,7.7-25.3,0.1c-8,8.5-18.8,7.1-25.2-0.1c-3.4,3.7-7.4,5.9-12.5,6c-5.1,0-9.2-2.1-12.7-6c-3.2,3.6-7.1,5.8-11.9,6
		c-4.8,0.2-8.9-1.6-12.8-5.3c0,1.3,0,2.2,0,3c0,29.8,0,59.6,0,89.4c0,0.6,0,1.2,0,1.8c-0.1,2.4-1.5,3.9-3.5,3.9
		c-2-0.1-3.3-1.5-3.3-3.9c0-6.5,0-12.9,0-19.4c0-22.6,0-45.2,0-67.7c0-0.9,0-1.8,0-2.4c-3.1,0.2-6,0.8-8.7,0.3
		c-6.6-1-10.9-5-13-11.3c-0.2-0.6-0.4-1.1-0.6-1.7C61.4,140.7,61.4,134.5,61.4,128.2z M256.2,81.6c-1,0-1.8,0-2.7,0
		c-5.6,0-11.1,0-16.7,0c-2.7,0-4.3-1.3-4.3-3.4c0-2.1,1.6-3.4,4.2-3.4c5.4,0,10.8,0,16.2,0c1,0,2.1,0,3.3,0c0-1.4,0-2.6,0-3.7
		c0-4.9-0.8-5.7-5.6-5.7c-48.4,0-96.7,0-145.1,0c-0.8,0-1.5-0.1-2.3,0c-1.8,0.2-3,1.2-3.2,3c-0.2,2,0,4.1,0,6.4c1.2,0,2.1,0,3.1,0
		c37.9,0,75.7,0,113.6,0c0.9,0,1.8,0,2.7,0.1c1.7,0.2,2.8,1.3,2.9,3c0.2,1.8-0.7,3.1-2.5,3.5c-1,0.2-2.1,0.2-3.2,0.2
		c-37.9,0-75.7,0-113.6,0c-1,0-1.9,0-2.9,0c0,4,0,7.7,0,11.4c52.1,0,104,0,156,0C256.2,89.2,256.2,85.5,256.2,81.6z M164.4,99.9
		c-3.7,0-7.2,0.2-10.7-0.1c-2.5-0.2-3.3,0.9-3.8,3c-1.2,5.5-2.5,10.9-3.7,16.4c-0.5,2.2-1,4.3-1.5,6.6c6.1,0,11.8,0,17.7,0
		C163.1,117.2,163.7,108.7,164.4,99.9z M211.7,125.8c-0.5-2.4-1-4.6-1.5-6.8c-1.2-5.5-2.4-10.9-3.8-16.4c-0.2-1-1.1-2.5-1.7-2.6
		c-4.2-0.2-8.4-0.1-12.8-0.1c0.7,8.8,1.3,17.3,2,25.9C199.8,125.8,205.6,125.8,211.7,125.8z M187,125.8c-0.7-8.7-1.3-17.2-2-25.8
		c-4.7,0-9.1,0-13.8,0c-0.7,8.6-1.3,17.1-2,25.8C175.3,125.8,181,125.8,187,125.8z M218.7,125.9c5.9,0,11.5,0,17.3,0
		c-1.4-3.6-2.7-7.1-4-10.5c-1.5-3.9-2.9-7.8-4.4-11.7c-0.7-1.6-1.4-3.6-3.6-3.7c-3.7-0.1-7.4,0-11.3,0
		C214.8,108.7,216.8,117.2,218.7,125.9z M120.2,126c5.6,0,10.9,0,16.2,0c0.5,0,1.3-0.6,1.4-1c1.9-8.2,3.8-16.5,5.7-25
		c-3.2,0-6.2,0.2-9.2-0.1c-2.9-0.2-4.6,1.1-5.5,3.6c-1.4,3.7-2.8,7.4-4.2,11C123.1,118.2,121.7,122,120.2,126z M122.7,99.9
		c-2.7,0-5.1,0.2-7.4,0c-4.3-0.4-6.9,1.7-8.7,5.2c-3.3,6.4-6.7,12.7-10,19.1c-0.3,0.5-0.4,1-0.7,1.7c5.5,0,10.7,0,16,0
		c0.5,0,1.3-0.5,1.5-1C116.4,116.7,119.4,108.5,122.7,99.9z M260.2,125.9c0-0.3,0.1-0.5,0-0.7c-3.8-7.2-7.5-14.4-11.5-21.5
		c-0.9-1.6-2.9-3.2-4.7-3.5c-3.3-0.6-6.7-0.2-10.4-0.2c3.3,8.8,6.5,17.4,9.7,25.9C249.1,125.9,254.7,125.9,260.2,125.9z M254.7,100
		c4.5,8.5,8.8,16.7,13.1,24.8c0.3,0.6,1.4,1.1,2.1,1.1c3,0.1,6.1,0.1,9.1,0.1c1.8,0,3.7,0,5.9,0c-5.1-7.5-9.8-14.5-14.7-21.5
		c-1.8-2.5-4.3-4.1-7.4-4.4C260.3,99.8,257.7,100,254.7,100z M71.2,126c5.5,0,10.6,0,15.7-0.1c0.6,0,1.4-0.8,1.7-1.4
		c2.3-4.3,4.6-8.6,6.8-12.9c2-3.8,4-7.6,6.1-11.7c-2.4,0-4.5,0-6.6,0c-3.8,0-7,1.6-9.2,4.7C81,111.5,76.3,118.5,71.2,126z
		 M136.8,133c-6.2,0-12.1,0-18.2,0c0,4.1-0.2,8,0,12c0.3,4.8,4.2,8.3,8.8,8.4c4.7,0.1,8.8-3.2,9.2-8
		C137.1,141.3,136.8,137.2,136.8,133z M219.3,132.9c0,3.9,0,7.5,0,11.2c0,0.6,0.1,1.2,0.2,1.8c0.8,4.1,4.1,7.1,8.1,7.4
		c4.3,0.3,8.7-2.1,9.4-6.2c0.8-4.6,0.6-9.4,0.8-14.2C231.5,132.9,225.5,132.9,219.3,132.9z M68.3,132.9c0,4.3-0.2,8.4,0.1,12.6
		c0.3,4.1,4,7.4,8,7.8c4.4,0.4,8.8-2,9.6-6.3c0.8-4.6,0.6-9.4,0.8-14.1C80.2,132.9,74.3,132.9,68.3,132.9z M269.8,132.9
		c0,4-0.1,7.8,0,11.6c0.1,4.7,3.7,8.5,8.2,8.9c4.8,0.4,9.3-2.7,9.9-7.5c0.5-4.2,0.1-8.6,0.1-13C281.9,132.9,276,132.9,269.8,132.9z
		 M169,132.9c0,4-0.1,7.8,0,11.6c0.1,4.4,3.5,8.2,7.8,8.7c4.6,0.6,9.3-2.1,10-6.7c0.6-4.5,0.1-9.1,0.1-13.7
		C181.1,132.9,175.2,132.9,169,132.9z M143.9,132.9c0,4.2-0.1,8.1,0,12.1c0.2,4.3,3.7,7.9,8,8.3c4.4,0.5,9-2.2,9.7-6.4
		c0.7-4.6,0.5-9.3,0.7-13.9C155.9,132.9,150,132.9,143.9,132.9z M194.2,132.9c0,4.2-0.3,8.3,0.1,12.4c0.4,4.6,4.3,7.9,8.8,8
		c4.5,0.1,8.7-2.9,9.2-7.2c0.4-4.3,0.1-8.7,0.1-13.2C206.3,132.9,200.4,132.9,194.2,132.9z M93.5,132.9c0,4.3-0.3,8.5,0.1,12.6
		c0.4,4.5,4.3,7.7,8.7,7.8c4.4,0.1,8.7-2.8,9.1-7c0.5-4.4,0.1-8.9,0.1-13.4C105.5,132.9,99.6,132.9,93.5,132.9z M244.8,132.9
		c-0.1,0.5-0.2,0.9-0.2,1.2c0,3.5-0.1,7,0.1,10.5c0.2,4.7,3.8,8.4,8.3,8.7c4.9,0.3,9.2-2.8,9.7-7.7c0.4-4.2,0.1-8.4,0.1-12.7
		C256.7,132.9,250.8,132.9,244.8,132.9z"/>
	<path d="M61.4,287.4c1.1-1.8,2.7-2.4,4.8-2.3c5.8,0.1,11.5,0,17.5,0c0-4.8,0-9.4,0-14.1c0-1.5,0-3,0-4.6c0-2.8,1.2-4.2,3.3-4.2
		c2.2,0,3.5,1.5,3.5,4.4c0,5,0,10,0,15.1c0,1.1,0,2.1,0,3.3c1.6,0,3.1,0,5,0c0-1.8,0-3.7,0-5.6c0-5.6,1-6.8,6.6-7.9
		c0-0.8,0-1.7,0-2.6c0-25.2,0-50.5,0-75.7c0-6.9,2.8-9.7,9.7-9.7c12.7,0,25.4,0,38.1,0c6.3,0,9.2,2.9,9.2,9.2c0,4.8,0,9.6,0,14.4
		c0,2.6-1.3,4.2-3.4,4.2c-2.1,0-3.4-1.6-3.4-4.3c0-4.8-0.1-9.6,0-14.4c0-1.6-0.3-2.3-2.1-2.3c-13,0.1-26,0.1-39,0
		c-2.3,0-2.1,1.3-2.1,2.8c0,21.3,0,42.6,0,63.9c0,4.8,0,9.7,0,14.7c14.5,0,28.8,0,43.3,0c0-0.9,0-1.8,0-2.6c0-14.5,0-29,0-43.6
		c0-0.9,0-1.9,0.2-2.7c0.5-1.6,1.8-2.5,3.5-2.3c1.7,0.1,2.8,1.2,3.1,2.9c0.1,0.7,0.1,1.5,0.1,2.3c0,14.4,0,28.9,0,43.3
		c0,0.8,0,1.7,0,2.6c0.6,0.1,1,0.2,1.4,0.3c3.3,0.4,5.2,2.4,5.3,5.7c0.1,2.4,0,4.9,0,7.4c4.4,0,8.7,0,13.3,0c0-0.9,0-1.7,0-2.6
		c0-21.8,0-43.6,0-65.5c0-0.8-0.1-1.5,0.1-2.3c0.3-1.8,1.4-2.9,3.2-2.9c2-0.1,3.1,1,3.5,2.9c0.1,0.7,0.1,1.4,0.1,2
		c0,13.2,0,26.5,0,39.7c0,0.8,0,1.7,0,2.8c0.8,0,1.5,0,2.3,0c5.3,0,10.6,0,16,0c4.4,0,6.6,2.2,6.7,6.6c0.1,5.5,0,11.1,0,16.6
		c0,0.8,0,1.6,0,2.6c2.2,0,4.2,0,6.4,0c0-0.9-0.1-1.8,0-2.6c0.2-1.8,1.3-2.9,3.1-3.1c1.7-0.1,3,0.7,3.4,2.4c0.4,1.7,0.6,3.6,2.9,3.3
		c2.6-0.3,2.2-2.5,2.2-4.3c0-8.7,0-17.5,0-26.2c0-0.8,0-1.6,0-2.7c-3,0-5.8,0-8.6,0c-5.3,0-10.6,0.1-16,0c-5.7-0.1-10-4.5-10.2-10.2
		c-0.2-7,0.5-7.7,7.5-7.7c5.3,0,10.6,0,16.1,0c0.3-1,0.5-1.9,0.8-2.8c1.7-5,4.6-8.8,9.6-10.9c0.7-0.3,1.3-1,1.7-1.6
		c1.6-2.1,4.2-2.1,5.8,0c0.4,0.5,0.8,1.2,1.3,1.4c5.9,2.3,9,6.9,10.5,12.9c0.1,0.3,0.2,0.6,0.3,1.1c5.3,0,10.6,0,15.9,0c1,0,2,0,3,0
		c2.2,0.1,3.6,1.4,3.9,3.5c1.4,10.2-4.9,14.7-11.9,14.5c-7.5-0.3-15-0.1-22.7-0.1c-0.1,0.7-0.2,1.3-0.2,1.8c0,9.3,0,18.5,0,27.8
		c0,0.3,0,0.6,0,0.9c0.1,1.5,0.8,2.5,2.3,2.6c1.5,0.1,2.3-0.9,2.6-2.3c0.6-2.6,2.2-3.9,4.1-3.4c1.6,0.4,2.6,1.6,2.7,3.3
		c0,0.8-0.1,1.5-0.1,2.4c2.4,0,4.7,0,7.4,0c0-0.8,0-1.6,0-2.4c0-5.7,0-11.4,0-17.1c0-4.1,2.3-6.3,6.4-6.3c5.3,0,10.6,0,16,0
		c0.7,0,1.5,0,2.4,0c0-1.1,0-2,0-2.9c0-13.2,0-26.5,0-39.7c0-0.9,0-1.8,0.3-2.7c0.5-1.7,1.9-2.6,3.5-2.1c1.1,0.4,2.1,1.6,2.9,2.7
		c0.4,0.6,0.1,1.6,0.1,2.5c0,21.7,0,43.5,0,65.2c0,0.9,0,1.8,0,2.9c1.4,0,2.6,0,3.8,0c1.9-0.1,3.7,0.2,4.5,2.3
		c0.8,2.2-0.6,3.4-2,4.6c-77.1,0-154.2,0-231.3,0C61.4,290.5,61.4,289,61.4,287.4z M102.4,285c18.9,0,37.6,0,56.3,0
		c0-2.1,0-4.1,0-6.2c-18.9,0-37.6,0-56.3,0C102.4,280.9,102.4,282.9,102.4,285z M203.8,285c0-6.3,0-12.6,0-18.9c-6,0-11.9,0-17.8,0
		c0,6.4,0,12.6,0,18.9C192.1,285,197.9,285,203.8,285z M261.7,266.1c0,6.4,0,12.7,0,18.9c6,0,11.8,0,17.6,0c0-6.4,0-12.6,0-18.9
		C273.4,266.1,267.7,266.1,261.7,266.1z M263.6,240.9c-20.9,0-41.7,0-62.6,0c0,2.8,1.2,4.1,3.8,4.1c18.3,0,36.6,0,55,0
		C262.4,245,263.5,243.7,263.6,240.9z M225.2,233.7c5.2,0,10.2,0,15.3,0c-1.3-4.9-4.5-7.7-8.4-7.4
		C228.8,226.5,225.6,229.9,225.2,233.7z"/>
	<path d="M146.2,232.1c0,1.8-1.5,3.3-3.3,3.4c-1.9,0-3.5-1.5-3.5-3.4c0-1.9,1.7-3.5,3.6-3.4C144.8,228.7,146.2,230.3,146.2,232.1z"
		/>
</g>
</svg>
