<?xml version="1.0" encoding="utf-8"?>
<!-- Generator: Adobe Illustrator 26.5.1, SVG Export Plug-In . SVG Version: 6.00 Build 0)  -->
<svg version="1.1" id="Layer_1" xmlns="http://www.w3.org/2000/svg" xmlns:xlink="http://www.w3.org/1999/xlink" x="0px" y="0px"
	 viewBox="0 0 350 350" style="enable-background:new 0 0 350 350;" xml:space="preserve">
<g>
	<path d="M185.9,66.6c0,2.3,0,4.6,0,7.2c-2.6,0-4.9,0-7.3,0c0,3.8,0,7.2,0,10.9c25.1,1.4,46.5,10.9,63.9,28.9
		c17.3,18,25.8,39.8,26.3,65c3.2,0,6.2,0,9.2,0c4.2,0,5.4,1.4,5.1,5.5c-0.9,11.8-10,21.4-21.7,23.1c-0.6,0.1-1.2,0.2-2,0.4
		c1.7,3.2,2.7,6.5,2,10c-0.6,3.5-2.2,6.4-4.9,8.6c-14.6,12.1-29.2,24.2-43.8,36.3c-5.3,4.4-11.3,6.4-18.1,6.4c-27.4,0-54.7,0-82.1,0
		c-0.8,0-1.7,0-2.7,0c0,3.4,0,6.5,0,9.7c0,3.5-1.2,4.7-4.7,4.7c-12.8,0-25.7,0-38.5,0c0-2.4,0-4.8,0-7.2c11.9,0,23.9,0,35.8,0
		c0-18.2,0-36.1,0-54.2c-12,0-23.9,0-35.8,0c0-2.4,0-4.8,0-7.2c11.9,0,23.8,0,35.7,0c1.9,0,3.8,0.3,5.6,0.4c0.4,0,0.8-0.1,1.1-0.3
		c2.8-2.3,5.6-4.6,8.9-7.4c-1.3,0-2,0-2.7,0c-7.6,0-15.2,0-22.8,0c-8.9-0.1-16.1-3.6-21.3-10.9c-2.5-3.4-3.7-7.4-4.5-11.5
		c0-1.3,0-2.5,0-3.8c0.9-2.1,2.6-2.8,4.7-2.7c3.2,0.1,6.3,0,9.6,0c0.5-25.2,9-46.9,26.3-65c17.4-18.1,38.8-27.5,63.9-28.9
		c0-3.6,0-7.1,0-10.9c-2.4,0-4.7,0-7.3,0c0-2.6,0-4.9,0-7.2C171.2,66.6,178.5,66.6,185.9,66.6z M88.3,178.3c57.8,0,115.5,0,173.2,0
		c0.2-45-36.8-86.2-86.5-86.3C125.6,91.9,88.1,132.7,88.3,178.3z M110.1,261.7c1,0,1.8,0,2.6,0c27.1,0,54.2,0,81.2,0
		c5.7,0,10.6-1.7,14.9-5.4c8.7-7.3,17.5-14.5,26.2-21.7c5.6-4.6,11.2-9.2,16.8-13.9c2.3-1.9,3.2-4.5,2.2-7.4c-0.9-2.8-3-4.7-5.9-4.6
		c-1.9,0-4,0.8-5.6,1.9c-13,9.2-26,18.4-38.9,27.7c-1.6,1.2-3.3,1.7-5.3,1.7c-13.3,0-26.5,0-39.8,0c-1.1,0-2.1-0.1-3.2-0.2
		c-5.4-0.6-9.4-5.2-9.4-10.7c0-5.4,4-9.9,9.3-10.6c1.1-0.1,2.2-0.2,3.4-0.2c7.1,0,14.2,0,21.4,0c2.6,0,4.3-1.3,5.2-3.6
		c0.8-2,0.4-4.1-1.3-5.4c-1.3-1-3.2-1.7-4.8-1.7c-15.1-0.1-30.2,0-45.3-0.1c-3.4,0-6.2,1.1-8.7,3.2c-4.6,3.9-9.4,7.7-13.9,11.7
		c-0.8,0.7-1.4,2-1.4,3c-0.1,11.4-0.1,22.8-0.1,34.3C109.9,260.3,110,260.9,110.1,261.7z M275.4,186c-67.1,0-134.1,0-201.1,0
		c0.9,6.9,7.6,13.3,14.8,14c3.1,0.3,6.2,0.3,9.3,0.3c26.9,0,53.7-0.1,80.6-0.1c26,0,52,0.1,78.1,0.1
		C266.5,200.3,273.7,194.6,275.4,186z M192.5,207.6c0,2.9,0.5,5.8-0.1,8.5c-1.3,5.9-6.2,9.3-12.9,9.4c-7.3,0.1-14.7,0-22,0
		c-2.6,0-4.1,1.4-4.2,3.5c-0.1,2.2,1.5,3.6,4.2,3.7c0.4,0,0.7,0,1.1,0c12.8,0,25.7,0,38.5,0c1.2,0,2.5-0.4,3.5-1.1
		c10.7-7.5,21.2-15.1,31.9-22.7c0.5-0.3,0.9-0.7,1.7-1.3C219.7,207.6,205.9,207.6,192.5,207.6z"/>
	<path d="M95.4,258.1c0,5.9-4.9,10.8-10.8,10.8c-5.8,0-10.8-4.9-10.8-10.8c0-6,4.9-10.9,10.9-10.8C90.7,247.4,95.4,252.2,95.4,258.1
		z M84.6,261.7c2,0,3.6-1.8,3.5-3.7c-0.1-1.9-1.7-3.4-3.6-3.4c-2,0-3.6,1.8-3.5,3.7C81.1,260.1,82.8,261.7,84.6,261.7z"/>
	<path d="M174.8,99.2c0,2.5,0,4.7,0,7.2c-18.8,0.3-35.3,6.8-49.3,19.6c-1.4-1.5-2.7-2.9-4-4.2c-0.3-0.3-0.5-0.6-0.9-1.1
		C135.9,106.7,153.9,99.5,174.8,99.2z"/>
	<path d="M115.4,125.8c1.9,1.7,3.6,3.2,5.4,4.8c-2.1,2.7-4.1,5.4-6.3,8.2c-1.9-1.3-3.8-2.5-6-4C110.8,131.9,113,128.9,115.4,125.8z"
		/>
</g>
</svg>
