<?xml version="1.0" encoding="utf-8"?>
<!-- Generator: Adobe Illustrator 26.5.0, SVG Export Plug-In . SVG Version: 6.00 Build 0)  -->
<svg version="1.1" id="Layer_1" xmlns="http://www.w3.org/2000/svg" xmlns:xlink="http://www.w3.org/1999/xlink" x="0px" y="0px"
	 viewBox="0 0 548.3 540.6" style="enable-background:new 0 0 548.3 540.6;" xml:space="preserve">
<style type="text/css">
	.st0{fill:#FFCC00;}
	.st1{fill:#52AE32;}
	.st2{fill:none;}
</style>
<g>
	<path class="st0" d="M436.9,376.9c-47.8,102.2-173.3,144.9-274.3,95.3C86.6,436.4,39.2,355.7,49,271.5c2.9-27,11.7-53.2,25.5-75.9
		c0.2-0.4,0.7-0.5,1-0.3c0.3,0.2,0.4,0.6,0.3,0.9c-9.8,24.5-15.4,50.3-16.2,76C57,348.9,99.6,426.1,168.1,461.4
		c69.1,36.8,158.7,26.3,218.3-24.3c20.1-16.7,36.8-37.5,49.1-60.8c0.2-0.4,0.7-0.5,1-0.3C437,376.1,437.1,376.6,436.9,376.9
		L436.9,376.9z"/>
	<g>
		<path class="st1" d="M119.4,144.8c0-0.7-0.2-1.8-1.3-2.9c-1.1-1-2.2-1.2-3-1.1c-0.7,0.1-1.6,0.3-2.6,1.3L99.3,156l-8.9-8.5
			l12.4-13c1-1,1.2-2.1,1.2-2.8c0-0.7-0.2-1.8-1.3-2.9c-1.1-1-2.2-1.2-2.9-1.1c-0.7,0-1.7,0.3-2.7,1.3l-12.4,13l-8.4-8.1l13.2-13.8
			c1-1,1.2-2.1,1.2-2.7c0-0.7-0.2-1.8-1.2-2.8c-1.1-1-2.2-1.2-2.9-1.1c-0.7,0-1.7,0.3-2.7,1.3l-16,16.7c-0.8,0.8-1.2,1.9-1.2,3
			c0,1.2,0.4,2.2,1.3,3l28.3,27c0.8,0.8,1.8,1.1,2.8,1.1c0.1,0,0.2,0,0.2,0c1.1-0.1,2.1-0.5,2.9-1.4l16-16.7
			C119.1,146.5,119.3,145.5,119.4,144.8z"/>
		<path class="st1" d="M133.8,129.5c0.6,1,1.6,1.6,2.8,1.8c0.2,0,0.4,0,0.6,0c0.8,0,1.6-0.2,2.4-0.7l19.1-12.1
			c1.2-0.8,1.6-1.7,1.8-2.4c0.2-0.7,0.2-1.8-0.5-3.1c-0.8-1.3-1.8-1.7-2.6-1.8c-0.7-0.1-1.8-0.1-2.9,0.6l-15.7,9.9l-19.1-30.2
			c-0.8-1.3-1.8-1.8-2.6-1.9c-0.8-0.2-1.9-0.2-3.3,0.6c-1,0.6-1.7,1.6-1.9,2.7c-0.2,1.1,0,2.2,0.6,3.1L133.8,129.5z"/>
		<path class="st1" d="M157.1,70l24.4,35c0.6,0.8,1.3,1.3,2.2,1.6c0.5,0.2,0.9,0.2,1.4,0.2c0.4,0,0.8-0.1,1.1-0.2
			c0.9-0.2,1.6-0.7,2.2-1.4c0.6-0.7,1-1.6,1-2.5l2.3-31.7l18.2,26.1c0.6,0.8,1.3,1.4,2.2,1.6c0.9,0.3,1.7,0.3,2.5,0.1
			c0.9-0.2,1.6-0.7,2.2-1.4c0.6-0.7,1-1.6,1.1-2.6l3-42.3l0-0.1l0-0.1c0-0.5,0-0.8-0.1-1.2c-0.3-1.1-1.1-2-2.1-2.5
			c-0.9-0.4-2-0.5-3-0.2c-1.7,0.5-2.8,1.8-2.9,3.6l-2.1,32.4l-18.2-26.2c-0.6-0.8-1.3-1.4-2.2-1.7c-0.9-0.3-1.8-0.4-2.7-0.1
			c-0.8,0.2-1.6,0.7-2.2,1.4c-0.6,0.7-0.9,1.6-1,2.6l-2.2,31.9l-18.5-26.8l-0.1-0.2c-0.5-0.6-1.1-1.1-1.9-1.3
			c-0.8-0.3-1.6-0.3-2.4-0.1c-1,0.3-1.8,0.9-2.4,1.7c-0.7,0.9-0.8,2.1-0.5,3.2C156.7,69.2,156.8,69.5,157.1,70z"/>
		<path class="st1" d="M247.3,94.8c1.7,0.1,3.1-0.7,4-2.3l4.6-9l20.6,1.2l3.5,9.5c0.3,0.8,0.8,1.4,1.4,1.9c0.7,0.5,1.4,0.8,2.2,0.8
			c0.1,0,0.2,0,0.3,0c0.9,0,1.8-0.3,2.5-0.8c0.9-0.7,1.5-1.7,1.5-2.8c0-0.6-0.1-1.2-0.3-1.7l-15.3-40.8c-0.3-0.9-0.8-1.6-1.6-2.2
			c-0.7-0.5-1.5-0.8-2.4-0.9c-1.9-0.1-3.5,0.8-4.3,2.5L243.9,89c-0.3,0.5-0.4,1-0.4,1.6c-0.1,1.1,0.3,2.2,1.1,3
			C245.3,94.3,246.3,94.7,247.3,94.8z M267.6,60.7l5.9,15.9l-13.7-0.8L267.6,60.7z"/>
		<path class="st1" d="M308.8,102.9c1.1,0.4,2.3,0.3,3.3-0.2c1-0.5,1.7-1.3,2.1-2.4l4.6-13.1l13.3,22.8c0.6,0.9,1.3,1.5,2.1,1.8
			c0.4,0.1,0.9,0.2,1.3,0.2c0.6,0,1.2-0.1,1.8-0.4c1-0.5,1.7-1.3,2.1-2.3l0,0c0.3-0.8,0.4-1.9-0.4-3.4l-13.4-23.1l23.6-9.2
			c1.5-0.6,2.1-1.6,2.3-2.4c0.4-1,0.3-2.1-0.3-3.1c-0.5-1-1.3-1.7-2.3-2c-1-0.3-2-0.3-2.9,0.1l-23.2,9.2l4.4-12.5
			c0.4-1.1,0.3-2.2-0.1-3.2c-0.5-1-1.3-1.8-2.4-2.2c-1.1-0.4-2.3-0.3-3.3,0.2c-1,0.5-1.7,1.3-2.1,2.4l-13.1,37.4
			c-0.4,1.1-0.4,2.2,0.1,3.2C306.8,101.8,307.7,102.5,308.8,102.9z"/>
		<path class="st1" d="M357,124.5c0.7,0.4,1.4,0.6,2.2,0.6c0.4,0,0.7,0,1.1-0.1c1.1-0.3,1.9-1,2.5-1.9l20.6-33.9
			c0.6-1,0.8-2.1,0.6-3.1c-0.2-1.1-0.9-2-1.9-2.7c-1-0.6-2.2-0.8-3.3-0.5c-1.1,0.3-1.9,1-2.5,1.9l-20.6,33.9c-0.6,1-0.8,2.1-0.6,3.1
			C355.3,122.9,356,123.8,357,124.5z"/>
		<path class="st1" d="M380.8,139.3c0.1,1,0.6,2,1.4,2.7l16.7,15.3c1,0.9,2.1,1.1,2.8,1.1c0,0,0,0,0,0c0.7,0,1.8-0.2,2.8-1.3
			c1-1.1,1.1-2.2,1.1-2.9c-0.1-0.7-0.3-1.7-1.4-2.7L390.6,139l24.2-26.3c1-1.1,1.2-2.2,1.2-3c0-0.8-0.3-1.9-1.4-3
			c-0.9-0.8-2-1.2-3.1-1.1c-1.1,0.1-2.1,0.6-2.9,1.4l-26.8,29.1C381,137,380.6,138.1,380.8,139.3z"/>
		<path class="st1" d="M458.6,214.7c0.6,1.3,1.5,1.9,2.1,2.1c0.4,0.1,0.8,0.3,1.4,0.3c0.5,0,1.1-0.1,1.7-0.4
			c1.4-0.6,1.9-1.6,2.1-2.3c0.2-0.7,0.4-1.7-0.2-3l-7.1-15.7l10.6-4.8l7.7,16.8c0.6,1.2,1.4,1.8,2,2.1c0.7,0.3,1.8,0.6,3.2-0.1
			c1.3-0.6,1.9-1.6,2.1-2.3c0.2-0.7,0.4-1.7-0.2-3l-9.3-20.5c-0.5-1.1-1.3-1.8-2.3-2.2c-1.1-0.4-2.2-0.4-3.3,0.1l-35.9,16.3
			c-1.1,0.5-1.8,1.3-2.2,2.3c-0.4,1.1-0.4,2.2,0.1,3.3c0.7,1.4,1.7,2,2.4,2.3c0.7,0.2,1.8,0.4,3.2-0.2l14.8-6.7L458.6,214.7z"/>
		<path class="st1" d="M457.3,271.1l-3.7,4.8c-0.7,0.9-1,2-0.8,3.1c0.2,1,0.7,1.9,1.6,2.5c0.7,0.5,1.5,0.8,2.3,0.8
			c0.2,0,0.4,0,0.7-0.1c0.8-0.1,1.6-0.6,2.3-1.4l4.9-6.4c4.1,1.2,8.8,1.5,13.9,0.9c1.6-0.2,2.5-0.9,2.9-1.5c0.7-0.9,0.9-1.9,0.7-3
			c-0.2-1-0.7-1.9-1.5-2.5c-0.6-0.5-1.6-1-3.2-0.9c-2.7,0.3-5.2,0.3-7.5,0.1l6.1-7.8c1.9,1.9,3.6,3.3,5.2,4.2
			c2.3,1.3,4.9,1.8,7.6,1.3c3.2-0.5,5.6-2.1,7.2-4.5c1.5-2.4,2-5.2,1.4-8.5c-0.6-3.4-2-6.1-4.3-8c-2.4-2.1-5.4-2.8-9-2.2
			c-2.2,0.4-4.1,1.2-5.7,2.6c-1,0.8-2,1.8-3.1,3.1c-2.3-2.4-4.4-4.1-6.5-5.3c-2.8-1.6-5.8-2.1-9-1.6c-2.6,0.4-4.9,1.5-6.6,3.2
			c-1.8,1.7-3,3.9-3.6,6.4c-0.6,2.4-0.7,5.1-0.2,8c0.5,3,1.6,5.7,3.4,8.1C454,268.3,455.5,269.8,457.3,271.1z M483,251.3L483,251.3
			c0.7-0.6,1.5-1,2.5-1.1c1.5-0.3,2.3,0.2,2.8,0.5c0.8,0.6,1.3,1.5,1.5,2.8c0.2,1.1,0,2-0.4,2.6c-0.3,0.4-0.8,1-2.2,1.2
			c-0.9,0.2-1.8-0.1-2.8-0.6c-0.7-0.4-1.8-1.3-3.6-3.1C481.7,252.6,482.4,251.9,483,251.3z M457.7,251.5c0.7-1.4,1.9-2.1,3.6-2.4
			c1.5-0.3,2.9,0,4.3,0.7c1.3,0.7,3,2.1,4.9,4.1L462,265c-1.2-0.8-2.1-1.7-2.9-2.7v0c-1.1-1.5-1.8-3.1-2.1-4.9
			C456.7,255,456.9,253,457.7,251.5z"/>
		<path class="st1" d="M499.7,305.7c-0.7-0.9-1.7-1.5-2.9-1.6l-38.9-4.2c-1.2-0.1-2.2,0.2-3.1,1c-0.9,0.7-1.4,1.7-1.5,2.9l-1.6,15.1
			c-0.5,5,0.2,9.1,2.2,12.2c2.1,3.3,5.4,5.2,9.9,5.6c3.2,0.3,6-0.2,8.3-1.6l0,0c1.1-0.6,2-1.4,2.8-2.3c0.5,0.8,1.2,1.5,1.9,2.1
			c1.9,1.7,4.3,2.7,7,3c0.6,0.1,1.2,0.1,1.8,0.1c3.5,0,6.4-1.1,8.7-3.4c2.6-2.5,4.1-6.3,4.7-11.2l1.6-14.5
			C500.7,307.7,500.4,306.6,499.7,305.7z M471.7,320.7c-0.3,3-1.1,5.1-2.3,6.3c-1.1,1.1-2.7,1.5-4.9,1.3c-2.1-0.2-3.4-0.9-4.2-2.2
			c-0.9-1.4-1.2-3.7-0.8-6.7l1.2-10.9l12.3,1.3L471.7,320.7z M491.3,321.9c-0.8,7.2-3.7,7.9-6.5,7.6c-2-0.2-3.3-0.9-4.1-2.3
			c-0.9-1.5-1.2-3.7-0.9-6.6l1.1-9.9l11.6,1.3L491.3,321.9z"/>
		<path class="st1" d="M472.9,145.3c-0.2-0.5-0.5-1-0.7-1.5c-6.1,2.4-12.4,4.3-18.2,7.2c-26.5,13.5-46,34.6-62.7,58.6
			c-21.6,31.2-36.5,65.8-51.7,100.3c-5.3,12.1-10.6,24.2-15.9,36.3c-0.6,0.1-1.2,0.2-1.9,0.2c-6.7-17-14.2-33.7-20.1-50.9
			c-7.6-22.4-13.9-45.2-20.7-67.8c-1.3-4.2-3.7-5.6-7.6-3.4c-1.9,1.1-3.7,2.9-4.8,4.8c-7.7,13.9-12.4,29-14.4,44.8
			c-1.1,8.9-1.6,17.8-2.4,26.7c-7.2-18.8-13.3-37.7-19.1-56.7c-3.9-13-7.2-26.3-11-39.3c-0.5-1.8-2.7-3.1-4.1-4.6
			c-0.9,1.9-2.4,3.7-2.6,5.7c-0.3,2.6,0.2,5.4,0.8,8c8.8,44,21.6,86.9,37.5,128.9c1.1,3,3.3,5,6,3.7c2.6-1.2,5-3.7,6.3-6.2
			c1-1.8,0.2-4.6,0-6.9c-1.7-20.1-2.4-40.2,0.4-60.2c1.2-8.5,3.4-16.8,5.1-25.2c0.5,0.1,1.1,0.1,1.6,0.2c0.4,1.3,0.8,2.6,1.2,4
			c9.9,37.5,23.1,73.9,39.2,109.2c1.7,3.8,3.8,8.5,8.4,7.6c3.4-0.7,6.2-4.6,9.1-7.2c0.7-0.7,1-1.9,1.5-2.9
			c7-17.1,14.1-34.1,21.1-51.2c12.5-30.1,24.4-60.6,41.4-88.6c15.9-26.1,35-49.1,61.9-64.6C462.2,151.1,467.6,148.2,472.9,145.3z"/>
		<path class="st1" d="M232.2,317.1c-0.9,0-1.9,1.3-3,3.8c-1.1,2.5-1.9,4.2-2.3,5.1c-7,15.1-15.8,28.8-26.3,40.8
			C190,378.9,176.3,385,159.4,385c-11.2,0-19.8-3.5-25.9-10.5c-6-7-9.1-16.9-9.1-29.6c0-9.7,1.3-19.5,4-29.6
			c14.7-2.4,29-6.4,42.8-11.9c13.8-5.5,25.1-11.9,33.8-19.1c8.7-7.2,13-14.7,13-22.4c0-6.8-2.8-12-8.4-15.6
			c-5.6-3.6-12.5-5.4-20.6-5.4c-13.6,0-26.8,5.3-39.5,16c-12.7,10.7-23.1,24.4-31,41.2s-11.9,33.8-11.9,50.9
			c0,18.2,4.7,31.7,14.2,40.5c9.4,8.8,21.2,13.2,35.2,13.2c17.1,0,31.6-5.7,43.3-17.1c11.7-11.4,20.5-23.8,26.3-37.2
			c5.8-13.4,8.7-22.1,8.7-26C234.5,318.8,233.7,317.1,232.2,317.1z M141.8,282.2c5.2-7.7,11.6-14.3,19.3-19.8
			c7.7-5.5,15.7-8.2,24-8.2c4.8,0,9.1,1,12.7,3c3.6,2,5.4,4.7,5.4,8.2c0,3.5-3.8,8-11.4,13.5c-7.6,5.5-17,10.5-28.2,15.1
			c-11.2,4.6-21.9,7.5-31.9,8.6C133.3,296.7,136.6,289.9,141.8,282.2z"/>
	</g>
</g>
<g>
	<rect x="249.6" class="st2" width="47.7" height="47.7"/>
	<rect x="500.5" y="280.2" class="st2" width="47.7" height="47.7"/>
	<rect y="280.2" class="st2" width="47.7" height="47.7"/>
	<rect x="227.7" y="492.9" class="st2" width="47.7" height="47.7"/>
</g>
</svg>
