<?xml version="1.0" encoding="utf-8"?>
<!-- Generator: Adobe Illustrator 26.5.1, SVG Export Plug-In . SVG Version: 6.00 Build 0)  -->
<svg version="1.1" id="Layer_1" xmlns="http://www.w3.org/2000/svg" xmlns:xlink="http://www.w3.org/1999/xlink" x="0px" y="0px"
	 viewBox="0 0 1208.4 925.4" style="enable-background:new 0 0 1208.4 925.4;" xml:space="preserve">
<style type="text/css">
	.st0{fill:#FFFFFF;}
	.st1{fill:#73A748;}
	.st2{fill:#B11116;}
	.st3{fill:#231F20;}
</style>
<g>
	<path class="st0" d="M209.3,574.3c37.6,197.2,211,346.3,419.2,346.3c217.8,0,397.5-163.1,423.6-373.9L209.3,574.3z"/>
	<g>
		<g>
			<path class="st1" d="M866.1,287c28.6,35.4,49.3,77.5,59.4,123.6c13.5-2.2,26.7-5.3,39.3-8.8c-10.2-55.7-34-106.7-67.8-149.3
				C887.6,262.9,875.8,276,866.1,287L866.1,287z"/>
			<path class="st1" d="M366.1,252.4c-33.9,42.6-57.7,93.6-67.9,149.4c13.8,3.8,28.2,7.1,42.8,9.4c0.2-0.2,0.4-0.5,0.5-0.7
				c9.8-45,29.8-86.1,57.4-121C388.4,277.4,376.3,263.7,366.1,252.4L366.1,252.4z"/>
			<path class="st1" d="M438.8,241.6c-2.1,3.5-4.1,7.5-6.1,11.8c45.3-41.1,103.3-68.6,167.4-75.7c10.3-14.3,20.7-28.6,31.3-42.8l0,0
				c10.5,14,20.8,28.1,31,42.3c62.2,6,115.1,27.9,160.2,66.1c10.3-12,24.5-20.7,35-32.5c-60-53.8-139.2-86.5-226.1-86.5
				s-166,32.6-225.9,86.3C416.8,221.3,428.1,229.1,438.8,241.6L438.8,241.6z"/>
		</g>
		<path class="st1" d="M684.3,208.3c-13.5,17.7-26.8,35.6-39.7,53.5c37.9,66.4,79.2,105.9,121.8,128.2
			c45.8-35.6,72.8-77.8,83.3-93.6c-1.9-3.4-3.8-7-5.6-10.6c-3.4-3.8-6.9-7.5-10.6-11.2c-26-26-56.2-46.4-89.9-60.6
			c-22.1-9.4-45.1-15.8-68.7-19.2C678,199.3,681.2,203.8,684.3,208.3L684.3,208.3z"/>
	</g>
	<path class="st2" d="M631.4,760.6c110.5,0,208.7-64.3,255.7-159.2c-8.3,7.9-18.6,12.2-30,12.7h-0.5h-0.5
		c-13.9-0.7-25-6.4-32.2-16.4c-1.6,2.8-4,5.2-7.2,7.1c-4.5,2.7-9.2,4.3-14.9,4.8h-0.6c-0.4,0-0.9,0-1.3,0c-7.6,0-13.8-3.4-17-9.5
		l-0.5-0.9l-0.1-0.3c-4.1,3.2-9.8,5.9-17.8,6.6l-0.7,0.1h-0.7c-6.4-0.3-21.3-3.4-24.8-26c-2.3,4.8-4.8,9.1-7.5,12.9
		c0.1,0,0.1,0.1,0.2,0.1l0.8,0.4c6.9,3.9,10.1,11,8.6,18.9l-0.2,0.9c-1.5,5.5-4.2,9.7-8.5,13.1c-3.7,3-7.9,4.5-12.3,4.5
		c-1.8,0-3.6-0.2-5.4-0.8l-0.8-0.2l-14.8-6.7c-7.1-2.9-13.3-4.4-18.8-4.7s-10.4-0.2-14.6,0.3c-6,0.9-11.1,0.7-15.3-0.7
		c-3.6-1.2-11.8-5.5-10.6-19.7l0.1-1.2l0.3-1.1c1.4-4.9,4.9-8.3,10.6-10.4c-0.7-2.2-1.3-4.2-1.8-5.9c-7.1-1.7-13.4-4.7-18.8-9.1
		l-0.5-0.4c-1.3-1.2-2.5-2.4-3.7-3.6c-0.6,1.5-1.2,3.1-1.8,4.7c-4.4,11-9.1,20.3-14.3,28.5c-7.4,11.8-16.3,17.7-26.5,17.7h-0.8
		c-13.1-0.8-22.6-7.2-26.9-17.7c-1.3,1.3-2.8,2.4-4.5,3.4c-5.4,3.4-11.6,4.8-17.7,3.9c-5.6-0.6-10.3-3-13.6-6.8
		c-8.6,8.9-19.5,13.9-31.7,14.3H487h-0.5c-13.4-0.7-24.2-6-31.4-15.3c-8.8,9.6-20,14.9-32.7,15.4h-0.5h-0.5
		c-19.1-1-32.8-11.4-38.6-29.3c-0.3-1-0.6-2.1-1-3.2c-1.1,0.2-2.3,0.3-3.4,0.4h-0.9c-4.2,0-8.4-1.3-12.4-3.8
		C407.2,687.2,511.9,760.5,631.4,760.6L631.4,760.6z"/>
	<g>
		<path class="st2" d="M382.7,565.7c-1.6-1.1-2.5-4.4-2.8-10.1c-0.4-5.7-0.2-11.9,0.2-18.8c0.4-6.9,0.7-12.8,1.1-17.7
			c0.4-2.8,0.4-5,0.4-6c0-4.2-1.6-7.1-5-9c-3.2-1.8-6.6-2.7-10.6-2.1c-3.9,0.5-6.7,2.1-9,5c-6.7,11-11.7,25-14.5,41.5
			c-0.7-4.1-0.9-9.4-0.5-16s0.9-13.1,1.6-19.3c0.5-5.5,0.9-9.9,1.1-12.9c-0.2-2.7-1.6-4.6-4.2-6.2c-3-1.2-5.9-1.6-9-0.5
			c-3,1.1-5.1,4.1-6.2,8.9c-2,12.6-2.9,25.8-2.8,39.7c-1.6-0.3-3.4-0.5-5.2-0.3c-2.7,0.2-4.8,0.4-6.4,0.4c-0.7,0.2-1.2,0.2-1.6,0.2
			c-0.4-5.7-1.1-12.4-2-20.2c-1.1-7.8-2.3-14-3.5-18.8c-1.1-2.5-3.2-4.1-6.9-5c-3.4-0.7-6.9-0.5-10.6,0.4s-6.4,2.8-8,5.7
			c-3.2,7.5-8.1,16.7-14.7,27.6c-6.6,11.2-12.9,20.7-19.2,29.2c-6.2,8.5-10.3,12.4-12.4,11.9c-2.1-2.1-2.1-8.3-0.2-19.2
			c2.1-10.8,5.5-23,10.1-36.7c4.8-13.6,9.9-25.7,15.6-36.2s10.8-16.3,15.8-17.7c3-0.2,5.3,1.2,6.4,4.6c1.2,3.4,2.1,7.3,2.7,11.9
			c0.5,4.2,1.4,8.1,2.7,11.5c1.1,3.2,3,4.8,5.9,4.8c2.8-0.5,5.1-3.5,6.7-9.2c1.6-5.5,1.8-11.7,0.5-18.3c-2.5-9.4-7.5-15.2-15.1-17.2
			c-7.6-2.3-15.2-1.2-22.9,3c-11.9,7.6-22.5,21.3-32.3,41.3c-9.8,20.2-15.8,39.9-18.3,59.2c-2.7,19.3,1.1,31.7,10.8,37.4
			c6.6,2.5,13.6,0.5,20.9-5.7s14.4-14.2,21.3-24.1c6.7-9.8,12.6-18.8,17.5-27c2.3-3.9,4.4-7.3,6-9.8c0.4,0.3,0.5,1.6,0.9,4.1
			c0.4,2.1,0.7,4.8,0.9,7.8c0.4,3,0.5,5.5,0.5,8c0,2.3-0.4,3.7-0.9,4.1c-15.4,11.2-26.2,24.8-32.4,40.6c-5.9,14.9-7.1,26.1-3.7,33.5
			s9,11,16.8,10.6c7.8-0.4,15.4-4.6,22.5-12.8c6.9-8.7,11.5-19,14.2-30.7c2.7-11.9,4.2-23.4,4.8-34.2c4.2-2.1,8.1-3.4,11.9-3.7
			c0.4-0.1,0.8-0.2,1.1-0.3c0.9,17.2,3,32.8,6.2,46.6c1.1,2.8,3.2,5,6.6,5.5c3.2,0.7,6.4,0.3,9.4-0.9c3.2-1.2,4.8-3.4,5-6.6
			c-1.2-20,1.6-40.2,8.3-60.6c1.2-3.5,2.1-5.5,2.7-6c0.7-0.5,1.1-0.2,1.4,1.2c0.4,1.2,0.7,3.2,0.9,5.5c0.2,1.2,0.4,2.3,0.5,3.5
			l2.5,16.5c0.9,4.8,2.5,8,4.8,9.9c2.5,1.8,4.8,2.7,7.1,2.7c2.5-0.2,4.2-0.5,5.5-1.6C384.3,567.5,384.1,566.6,382.7,565.7
			L382.7,565.7z M286.8,573.1c-0.4,2.3-0.9,5.5-1.8,9.2c-0.7,3.7-1.6,7.3-2.5,10.8c-0.9,3.4-1.6,5.8-2.1,7.5
			c-3.7,11.2-7.1,17.4-9.8,18.8c-2.7,1.2-4.1-0.5-4.4-5.3c-0.4-4.8,0.7-11,3.5-18.3c4.1-9.6,9.8-17.9,16.8-25.5
			C287.2,569.8,287.2,570.7,286.8,573.1L286.8,573.1z"/>
		<path class="st2" d="M618.2,540.3c-1.2-0.9-2.8-1.1-4.4-0.9c-1.6,0.4-2.7,1.2-3.4,2.5c-1.4,5-3.7,11.2-6.6,18.1
			c-2.8,7.1-5.8,13.1-8.9,18.4c-3,5.3-5.7,8-7.6,8c-2.1-0.7-3-3.2-2.8-7.5c0.3-4.4,0.9-9.8,2-16c1.2-8,2.1-15.6,2.5-23.4
			c0.3-8-0.9-14.4-3.7-19.3c-6-7.8-13.8-9.9-23.6-6.2c-9.9,3.5-17,13.7-21.3,30.1c0-2.5,0.2-6.6,0.7-11.7c0.7-5,0.9-9.2,1.1-12.9
			c-0.3-3-2.3-5-5.7-5.7c-3.5-0.9-7.1-0.7-10.6,0.2c-3.5,1.2-5.5,3-6,5.7c-0.1,10.6,0.1,20.5,0.6,29.5c-4.2,10.8-8.3,18.8-12.2,24.4
			c-5.3,7.5-10.3,11.7-15.6,12.6c-2.7,0.7-5.3-0.5-7.8-3.7c-2.3-3.4-3.7-9.6-3.9-19.2c12.4-3.5,21.8-10.8,27.8-22s7.5-21.8,3.7-31.7
			c-3.4-7.5-9-12.4-17.2-15.1c-8.1-2.7-15.4-0.9-21.8,5.1c-7.6,9-12.9,21.6-16,37.6c-0.6,3.4-1.1,6.7-1.4,10
			c-4.5,11.8-8.9,20.5-12.9,26.4c-5.3,7.5-10.3,11.7-15.6,12.6c-2.7,0.7-5.3-0.5-7.8-3.7c-2.3-3.4-3.7-9.6-3.9-19.2
			c12.4-3.5,21.8-10.8,27.8-22s7.5-21.8,3.7-31.7c-3.4-7.5-9-12.4-17.2-15.1c-8.1-2.7-15.4-0.9-21.8,5.1c-7.6,9-12.9,21.6-16,37.6
			c-3,16.1-2.5,30.7,1.8,43.8c4.2,13.3,13.5,20.4,27.8,21.1c9.8-0.4,18.1-4.4,24.8-12.1c4.1-4.6,7.7-9.6,10.8-14.8
			c0.5,2,1,3.9,1.6,5.8c4.2,13.3,13.5,20.4,27.8,21.1c9.8-0.4,18.1-4.4,24.8-12.1c4.3-4.9,8.1-10.1,11.3-15.6
			c0.9,5.3,2.1,10.3,3.4,14.9c1.4,3.4,3.9,5,7.6,5.3c3.5,0.5,7.1-0.4,10.1-2.3c3.2-1.8,4.6-4.2,4.4-7.6c-1.8-11.5-1.2-21.8,1.1-30.8
			s5.3-15.6,8.9-19.7c3.4-4.1,6-4.4,7.8-1.1c1.2,4.4,0.9,11.9-0.9,22.3c-1.8,11.5-2.3,22.5-1.2,32.8c1.2,10.5,7.3,16,18.3,16.7
			c5.8,0,11.3-4.1,16.5-12.2c5.3-8.2,9.6-17,13.3-26.4s6-16.7,7.1-21.8C620,542.7,619.6,541.1,618.2,540.3L618.2,540.3z
			 M420.3,525.1c3.5-9.2,6.6-14.4,9.4-15.2c2.8-1.1,3.5,4.2,2,16c-1.2,5.7-3.4,10.5-6.7,14.7c-3.4,4.1-6.6,6.6-9.4,7.6
			C416.3,540.1,417.7,532.5,420.3,525.1L420.3,525.1z M485.4,525.1c3.5-9.2,6.6-14.4,9.4-15.2c2.8-1.1,3.5,4.2,2,16
			c-1.2,5.7-3.4,10.5-6.7,14.7c-3.4,4.1-6.6,6.6-9.4,7.6C481.3,540.1,482.7,532.5,485.4,525.1L485.4,525.1z"/>
		<path class="st2" d="M684.6,447.5c-20.2,2.5-35.5,11.2-45.9,26.2c-10.5,14.9-15.8,31-16.3,48c-0.3,17.2,4.4,30.1,14.5,39.2
			c5.5,4.4,12.4,7.1,20.6,7.8c0.9,2.5,1.6,5,2.1,7.1c0.9,3.2,1.8,6,3,9c1.2,2.8,3.4,5.8,6.4,9.2c-1.1,0-3.2,0.2-5.8,0.5
			c-2.8,0.2-5.5,0.7-8,1.4s-3.9,1.6-4.3,2.8c-0.3,4.2,0.4,6.7,2.5,7.5c2.1,0.7,5.5,0.9,9.9,0.2c4.6-0.5,10.1-0.7,16.8-0.3
			c6.7,0.3,14.2,2.1,22.9,5.7l14.2,6.4c2.5,0.7,4.8,0.2,6.9-1.6c2.5-2,3.7-4.2,4.4-6.9c0.5-2.8-0.3-5-2.8-6.4
			c-3.4-1.6-9-3.4-16.8-5.5c12.4-8.5,21.5-25.2,27.8-49.6c6.2-24.6,5.8-47.7-1.1-69.3C728.8,457.2,711.8,446.7,684.6,447.5
			L684.6,447.5z M719,521.7c-1.1,18.1-4.1,33.9-9.2,47.9c-5,14.2-11.2,21.1-18.1,21.1c-2.7,0-5-1.4-6.7-4.6c-2.1-3-3.4-6.4-4.6-10.1
			c-0.9-3.5-1.6-6.7-1.8-9c4.4-0.9,8.7-2.8,12.9-6c4.1-3.2,6.6-6.7,7.3-10.8c0-1.4-0.7-2.7-2.5-3.4c-1.8-0.9-3.5-1.4-5.7-1.4
			c-2,0-3.2,0.7-4.1,1.6c-0.7,2-2,3.9-3.5,6.2c-1.4,2-3.5,3.5-5.7,4.1c0-11.2,0.9-20.7,3-28.4c2-7.6,3.7-13.5,5.1-17.4
			c1.1-2.5,1.4-4.3,1.4-5c0-2.3-1.4-4.1-4.4-5.3c-3.2-1.4-6.6-2-9.9-1.8c-3.4,0.4-5.7,1.4-6.9,3.5c-6,13.5-9.2,31.7-9.8,54.6
			c-9.2-5.3-13.3-16-12.4-31.9c0.9-16,5.3-31.4,12.9-46.3c7.8-14.7,17.4-22.9,28.7-24.5c13.3,0,22.5,6.7,27.5,20
			C718,488.2,720.1,503.8,719,521.7L719,521.7z"/>
		<path class="st2" d="M813.5,501c-2.5-1.1-5.5-1.2-8.5-0.7s-5.1,1.8-6,3.7c-3,7.6-6,16-9,25c-3.5,10.8-7.1,20.4-10.6,29.1
			c-3.4,8.5-6.4,13.8-9.2,16.1c-1.4,0.5-2.1-1.8-2-6.7c0.2-5.3,0.7-11.5,2-19.3c0.9-7.5,2.3-14.9,4.1-21.6
			c1.8-6.9,3.7-11.9,5.7-14.9c1.1-1.8,0.7-3.5-0.9-5.1c-1.8-1.6-4.2-2.7-7.4-3.5c-3-0.7-6-0.5-9,0.2c-2.8,0.9-4.8,2.8-5.8,6
			c-2.3,6.7-4.3,17-6,30.3c-2.1,13.3-2.3,25.5-0.9,36.9c1.4,11.2,5.8,17,13.8,17.4c6.6-0.5,11.5-3,14.7-7.6c3.2-4.4,6-9.9,8-15.8
			c1.4-3.5,3-7.1,4.6-10.3c0,1.2,0.2,3.7,0.2,7.3c0,4.8,0.2,9.8,0.3,15.2c0.3,5.5,1.1,9.4,2,12.1c1.2,2.3,3.7,3.4,7.3,3.2
			c3.5-0.3,6.7-1.2,9.9-3.2c3-1.8,4.1-3.9,3.5-6.4c-3-10.3-4.1-22.7-3-37.2c0.9-14.5,3-29.1,6-43.6
			C817.6,504.2,816.4,502.2,813.5,501L813.5,501z"/>
		<path class="st2" d="M1052.7,540.3c-1.2-0.9-2.8-1.1-4.4-0.9c-1.6,0.4-2.7,1.2-3.4,2.5c-1.4,5-3.7,11.2-6.6,18.1
			c-2.8,7.1-5.8,13.1-8.9,18.4c-3,5.3-5.7,8-7.6,8c-2.1-0.7-3-3.2-2.8-7.5c0.3-4.4,0.9-9.8,2-16c1.2-8,2.1-15.6,2.5-23.4
			c0.3-8-0.9-14.4-3.7-19.3c-6-7.8-13.8-9.9-23.6-6.2c-9.9,3.5-17,13.7-21.3,30.1c0-2.5,0.2-6.6,0.7-11.7c0.7-5,0.9-9.2,1.1-12.9
			c-0.3-3-2.3-5-5.7-5.7c-3.5-0.9-7.1-0.7-10.6,0.2c-3.5,1.2-5.5,3-6,5.7c-0.1,10.6,0.1,20.5,0.6,29.5c-4.2,10.8-8.3,18.8-12.2,24.4
			c-5.3,7.5-10.3,11.7-15.6,12.6c-2.7,0.7-5.3-0.5-7.8-3.7c-2.3-3.4-3.7-9.6-3.9-19.2c12.4-3.5,21.8-10.8,27.8-22s7.5-21.8,3.7-31.7
			c-3.4-7.5-9-12.4-17.2-15.1s-15.4-0.9-21.8,5.1c-7.6,9-12.9,21.6-16,37.6c-0.6,3.4-1.1,6.7-1.4,10c-4.5,11.8-8.9,20.5-12.9,26.4
			c-5.3,7.5-10.3,11.7-15.6,12.6c-2.7,0.7-5.3-0.5-7.8-3.7c-2.3-3.4-3.7-9.6-3.9-19.2c12.4-3.5,21.8-10.8,27.8-22s7.5-21.8,3.7-31.7
			c-3.4-7.5-9-12.4-17.2-15.1s-15.4-0.9-21.8,5.1c-7.6,9-12.9,21.6-16,37.6c-3,16.1-2.5,30.7,1.8,43.8c4.2,13.3,13.5,20.4,27.8,21.1
			c9.8-0.4,18.1-4.4,24.8-12.1c4.1-4.6,7.7-9.6,10.8-14.8c0.5,2,1,3.9,1.6,5.8c4.2,13.3,13.5,20.4,27.8,21.1
			c9.8-0.4,18.1-4.4,24.8-12.1c4.3-4.9,8.1-10.1,11.3-15.6c0.9,5.3,2.1,10.3,3.4,14.9c1.4,3.4,3.9,5,7.6,5.3
			c3.5,0.5,7.1-0.4,10.1-2.3c3.2-1.8,4.6-4.2,4.4-7.6c-1.8-11.5-1.2-21.8,1.1-30.8s5.3-15.6,8.9-19.7c3.4-4.1,6-4.4,7.8-1.1
			c1.2,4.4,0.9,11.9-0.9,22.3c-1.8,11.5-2.3,22.5-1.2,32.8c1.2,10.5,7.3,16,18.3,16.7c5.8,0,11.3-4.1,16.5-12.2
			c5.3-8.2,9.6-17,13.3-26.4c3.7-9.4,6-16.7,7.1-21.8C1054.5,542.7,1054.1,541.1,1052.7,540.3L1052.7,540.3z M854.9,525.1
			c3.5-9.2,6.6-14.4,9.4-15.2c2.8-1.1,3.5,4.2,2,16c-1.2,5.7-3.4,10.5-6.7,14.7c-3.4,4.1-6.6,6.6-9.4,7.6
			C850.8,540.1,852.2,532.5,854.9,525.1L854.9,525.1z M919.9,525.1c3.5-9.2,6.6-14.4,9.4-15.2c2.8-1.1,3.5,4.2,2,16
			c-1.2,5.7-3.4,10.5-6.7,14.7c-3.4,4.1-6.6,6.6-9.4,7.6C915.8,540.1,917.3,532.5,919.9,525.1L919.9,525.1z"/>
	</g>
	<path d="M701.5,479.1c-3.1-8.3-7.8-12-15.5-12.3c-7,1.3-13.4,7.4-19,18.1c-0.7,1.4-1.4,2.8-2,4.2c1.8-0.7,3.9-1.2,6.4-1.5h0.6
		c5.3-0.3,10.5,0.6,15.2,2.7c10.5,4.4,11.6,12.8,11.6,16.2c0,3.2-1.2,6.8-2.2,9.3c-1.4,3.8-3,9.5-4.7,16l-0.1,0.2
		c-0.1,0.5-0.2,0.9-0.4,1.4c3.4,0.1,6.6,0.9,9.8,2.5c1.5,0.7,2.9,1.5,4.1,2.6c0.8-5.5,1.4-11.3,1.8-17.4l0,0
		c1-16.1-0.9-30.1-5.5-41.7L701.5,479.1L701.5,479.1z"/>
	<path class="st2" d="M324.2,612.7l-0.1-0.1C324.1,612.6,324.1,612.6,324.2,612.7z"/>
	<path class="st3" d="M953.8,599.8c-5.5,5.7-12,9.8-19,12.1c-16.3,33.2-37.9,63.4-64.4,89.8c-31,31-67.2,55.4-107.4,72.4
		c-41.7,17.6-85.9,26.6-131.6,26.6s-89.9-8.9-131.6-26.6c-40.2-17-76.4-41.4-107.4-72.4c-25.4-25.4-46.3-54.2-62.4-85.9
		c-5.7-1.9-10.2-6.2-12.4-12.2l-0.3-0.8l-0.2-0.8c-0.5-2-0.9-4-1.3-6.1c-1.4,5.6-3.3,10.9-5.5,15.9
		c56.3,121,178.9,204.8,321.1,204.8s271.1-88.2,325.3-214.2C955.7,601.7,954.7,600.8,953.8,599.8L953.8,599.8z"/>
	<path class="st2" d="M931.9,612.7c-0.1,0-0.2,0-0.2,0.1c-1,0.2-2,0.5-3,0.6c0,0,0,0-0.1,0c-0.9,0.2-1.8,0.3-2.8,0.4
		c-0.2,0-0.5,0-0.7,0.1c-1,0.1-2,0.2-2.9,0.2h-0.5h-0.5c-8.6-0.4-16-2.8-22.2-6.8c-17.2,34.9-41.2,66.4-71,92.5
		c-54.4,47.7-124.2,74-196.6,74c-34.3,0-67.9-5.8-99.9-17.1c-30.9-11-59.7-27-85.5-47.5c-36.4-28.9-65.5-66.1-85-107.8
		c-1.4,6.3-5.6,11.2-12,13.7c-5.2,2.1-10.7,2.6-16,1.5c-0.5-0.1-1-0.2-1.5-0.3h-0.1c-0.5-0.1-1-0.3-1.4-0.4
		c16.1,31.7,37,60.5,62.4,85.9c31,31,67.2,55.4,107.4,72.4c41.7,17.6,85.9,26.6,131.6,26.6s89.9-8.9,131.6-26.6
		c40.2-17,76.4-41.4,107.4-72.4c26.4-26.4,48-56.6,64.4-89.8l0,0C933.8,612.2,932.9,612.5,931.9,612.7L931.9,612.7z"/>
	<path class="st3" d="M1068.5,321.6c0.4,14.5,0.6,24.7,0.9,39.2c-17.7,8.2-50.6,24.3-90,36.7c-30.6-164.4-174.8-288.8-348-288.8
		S314,233.1,283.4,397.5c-39.4-12.5-72.3-28.5-90-36.7c0.3-14.5,0.5-24.7,0.9-39.2c-19.4-8.4-39.1-16.5-59-24.3
		c19.4,26.3,38.2,52.9,56.6,79.7c17.1,25.5,33.7,51.1,49.9,76.9c0.9-0.9,1.8-1.7,2.7-2.5c0.1-0.1,0.2-0.2,0.3-0.3
		c0.8-0.7,1.6-1.4,2.4-2.1c0.2-0.1,0.4-0.3,0.5-0.4c0.8-0.6,1.5-1.2,2.3-1.7c0.2-0.1,0.4-0.3,0.6-0.5c0.9-0.7,1.9-1.3,2.9-1.9
		l0.6-0.4c0.6-0.3,1.2-0.6,1.8-0.9c0.2-0.1,0.4-0.2,0.6-0.3c0.4-0.2,0.9-0.4,1.3-0.6c0.2-0.1,0.4-0.2,0.6-0.3c0.5-0.2,1-0.4,1.5-0.6
		c0.1,0,0.2-0.1,0.3-0.1c0.6-0.2,1.1-0.4,1.7-0.6c0.2-0.1,0.4-0.1,0.7-0.2c0.4-0.1,0.8-0.2,1.1-0.4c0.2-0.1,0.5-0.1,0.7-0.2
		c0.4-0.1,0.8-0.2,1.1-0.3c0.2,0,0.4-0.1,0.7-0.2c0.5-0.1,1.1-0.2,1.6-0.3c0.3,0,0.6-0.1,0.8-0.1c0.3,0,0.6-0.1,0.9-0.1
		s0.6-0.1,0.9-0.1s0.6-0.1,0.9-0.1c0.5,0,1-0.1,1.4-0.1c0.3,0,0.7,0,1,0s0.7,0,1,0c0.2,0,0.5,0,0.7,0c0.3,0,0.7,0,1,0
		c0.2,0,0.5,0,0.7,0c1.7,0.1,3.3,0.3,5,0.6l0,0l0,0c0.6,0.1,1.2,0.2,1.8,0.4l0,0c0.6,0.2,1.3,0.3,2,0.5c1.9,0.5,3.9,1.2,6,2.2l0,0
		l0,0c1,0.5,2.1,1.1,3.1,1.8c0,0,0.1,0,0.1,0.1c0.3,0.2,0.7,0.5,1,0.7c0,0,0.1,0.1,0.2,0.1c0.7,0.5,1.4,1.1,2.1,1.7
		c0.1,0.1,0.1,0.1,0.2,0.2c0.3,0.3,0.6,0.5,0.9,0.8l0.1,0.1c0.3,0.3,0.7,0.7,1,1l0.1,0.1c0.3,0.3,0.6,0.6,0.8,1
		c0.1,0.1,0.1,0.2,0.2,0.3c0.3,0.4,0.6,0.7,0.9,1.1c0,0,0,0.1,0.1,0.1c0.3,0.4,0.6,0.8,0.9,1.3c0.1,0.1,0.1,0.2,0.2,0.3
		c0.2,0.4,0.5,0.7,0.7,1.1c0.1,0.1,0.1,0.2,0.2,0.3c0.3,0.5,0.5,1,0.8,1.5c0,0.1,0.1,0.1,0.1,0.2c0.2,0.4,0.5,0.9,0.7,1.4
		c0.1,0.1,0.1,0.3,0.2,0.5c0.2,0.4,0.4,0.9,0.6,1.3c0,0.1,0.1,0.2,0.1,0.3c0.2,0.6,0.5,1.1,0.7,1.7c0,0.1,0.1,0.3,0.1,0.4
		c0.2,0.5,0.3,1,0.5,1.4c0.1,0.2,0.1,0.4,0.2,0.5c0.2,0.6,0.4,1.3,0.6,2l0.2,0.8c1.6,8.5,1.3,16.5-0.8,23.8
		c-0.1,0.2-0.1,0.5-0.2,0.7c2.6,2,4.4,4.4,5.4,6.6c3-10.2,9.5-13.9,13.3-15.2l0.2-0.1c5.7-1.9,11.4-1.6,17.3,0.8l0.8,0.3l0.8,0.5
		c4.6,2.8,7.2,6.2,8.6,9.5c2.8-1.6,6-2.6,9.4-3.1c6.4-0.8,12.3,0.3,18,3.5l0.2,0.1c4.2,2.4,7.2,5.8,9,10c2.3-4.3,5-8.1,7.9-11.6
		l0.4-0.5l0.5-0.5c9.5-9,21.5-11.8,33.7-7.8c10.6,3.4,18.4,9.9,23.2,19.2c2.2-3.8,4.6-7.3,7.2-10.5l0.4-0.5l0.5-0.5
		c9.5-9,21.5-11.8,33.7-7.8c10.6,3.5,18.5,10,23.4,19.4l0.6-0.1c5.6-1.4,11.1-1.5,16.2-0.2c3.9,0.9,7.2,2.7,9.7,5.2
		c2.7-1.9,5.6-3.5,8.7-4.6c14.6-5.5,27.8-2,37.1,10.1l0.5,0.7l0.4,0.7c3.3,5.8,5,12.5,5.3,20.4c2.3-3.4,5.8-5.8,9.8-6.8
		c-0.1-2.1-0.2-4.3-0.1-6.5v-0.1c0.6-19.6,6.8-37.9,18.5-54.5c12.3-17.8,30.6-28.3,54.2-31.2l0.6-0.1h0.6c41-1.1,56.7,21,62.7,39.6
		c2.1,6.7,3.7,13.5,4.7,20.5c2.1-1.8,4.5-3.1,7.2-4l0.8-0.2c5-1.2,9.9-1.2,14.5-0.2l0.5,0.1c3.3,0.9,8.2,2.6,12.2,6.2l0.5,0.4
		c0.3,0.3,0.6,0.6,0.8,0.9c1.5-3.2,5.4-8.8,14.7-10.4c5.5-1,10.7-0.5,15.3,1.5h0.1c4.8,2.1,8.2,5.7,9.8,10.1
		c1.8-2.9,3.7-5.6,5.8-8.1l0.4-0.5l0.5-0.5c9.5-9,21.5-11.8,33.7-7.8c10.6,3.4,18.4,9.9,23.2,19.2c2.2-3.8,4.6-7.3,7.2-10.5l0.4-0.5
		l0.5-0.5c9.5-9,21.5-11.8,33.7-7.8c10.6,3.5,18.5,10,23.3,19.4l0,0l0.5-0.1c0.8-0.2,1.6-0.4,2.3-0.5c0.2,0,0.3-0.1,0.5-0.1
		c0.6-0.1,1.2-0.2,1.9-0.3c0.2,0,0.3,0,0.5,0c0.7-0.1,1.3-0.1,2-0.1c0.1,0,0.2,0,0.3,0c1.3,0,2.6,0,3.9,0.1c0.1,0,0.2,0,0.2,0l0,0
		c0.4,0,0.8,0.1,1.2,0.1l0,0c0.3,0,0.5,0.1,0.8,0.1l0,0c0.9,0.1,1.8,0.3,2.7,0.5c0.5,0.1,0.9,0.2,1.4,0.4l0,0
		c0.3,0.1,0.6,0.2,0.9,0.3c0.1,0,0.3,0.1,0.4,0.1l0,0c0.7,0.2,1.3,0.5,2,0.8l0,0c0.1,0,0.2,0.1,0.3,0.1c0.4,0.2,0.8,0.4,1.2,0.6
		c0,0,0,0,0.1,0l0,0c0.3,0.2,0.5,0.3,0.8,0.5l0,0c0.1,0,0.1,0.1,0.2,0.1l0,0c0.3,0.2,0.6,0.4,0.8,0.6l0,0l0.1,0.1l0,0
		c0.5,0.4,1.1,0.9,1.6,1.4c0.6-0.4,1.2-0.8,1.8-1.2c0.3-0.2,0.6-0.4,0.9-0.5c0.3-0.2,0.6-0.4,0.9-0.5c0.4-0.2,0.8-0.5,1.3-0.7
		c0.2-0.1,0.3-0.2,0.5-0.2c0.5-0.2,1-0.5,1.5-0.7c25.7-42.7,52.6-85,80.6-126.8c18.4-26.8,37.2-53.3,56.6-79.7
		C1107.7,305.1,1088,313.2,1068.5,321.6L1068.5,321.6z M341,411.2c-14.4-2.2-28.6-5.4-42.2-9.2c4.4-24.3,11.4-48,21.1-70.9
		c12-28.2,27.5-54.5,46.5-78.3c12.2,13.4,26.9,30.2,38.5,43.6C384,344.6,362.4,384,341,411.2L341,411.2z M849.7,296.4
		c-10.5,15.8-37.5,58-83.3,93.6c-42.6-22.2-83.9-61.8-121.8-128.2c12.9-18,26.1-35.8,39.7-53.5c-17.1-24.7-34.7-49.1-52.9-73.4l0,0
		c-18.2,24.3-35.8,48.7-52.9,73.4c13.5,17.7,26.8,35.6,39.7,53.5c-37.9,66.4-79.2,106-121.8,128.2c-45.8-35.6-72.4-77.3-83-93.1
		c8.7-15.3,19.6-36.6,28.7-51.8c-10.6-12.4-25.1-23.7-36.2-34.3c27.9-25,59.4-45,93.9-59.6c41.7-17.6,85.9-26.6,131.6-26.6
		s89.9,8.9,131.6,26.6c34.5,14.6,66.1,34.7,93.9,59.7c-12.5,12.2-27.5,24.1-38.2,36.7C827.8,262.8,841.1,281.1,849.7,296.4
		L849.7,296.4z M925.5,410.6c-25.6-33.9-45.3-65.4-67.6-114.2c10.4-12,26.5-30,38.7-43.4c18.9,23.8,34.4,50,46.3,78.1
		c9.7,22.9,16.7,46.6,21.1,70.9C950.4,405.8,939.9,408.4,925.5,410.6L925.5,410.6z"/>
	<path class="st1" d="M496.4,390c42.6-22.2,83.9-61.8,121.8-128.2c-12.9-18-26.1-35.8-39.7-53.5c3-4.3,5.9-8.5,8.9-12.8
		c-22,3.6-43.4,9.8-64,18.5c-33.7,14.2-63.9,34.7-89.9,60.6c-7.1,7.1-13.8,14.5-20,22.3C424.2,313.1,451.1,354.8,496.4,390
		L496.4,390z"/>
</g>
</svg>
