<?xml version="1.0" encoding="UTF-8"?><svg id="Layer_1" xmlns="http://www.w3.org/2000/svg" viewBox="0 0 1208.41 925.38"><defs><style>.cls-1{fill:#b11116;}.cls-2{fill:none;}.cls-3{fill:#73a748;}.cls-4{fill:#231f20;}</style></defs><g><g><path class="cls-3" d="M839.49,287.03c28.62,35.43,49.32,77.53,59.39,123.61,13.47-2.23,26.67-5.28,39.35-8.82-10.18-55.71-33.99-106.66-67.84-149.28-9.35,10.31-21.16,23.46-30.91,34.49Z"/><path class="cls-3" d="M339.51,252.43c-33.9,42.65-57.74,93.65-67.93,149.43,13.78,3.84,28.16,7.11,42.84,9.37,.18-.23,.37-.47,.55-.71,9.84-44.97,29.81-86.15,57.38-121.03-10.55-12.11-22.61-25.81-32.84-37.07Z"/><path class="cls-3" d="M412.18,241.64c-2.09,3.51-4.13,7.52-6.12,11.77,45.31-41.15,103.3-68.57,167.43-75.71,10.26-14.33,20.68-28.6,31.32-42.79h.01c10.52,14.03,20.83,28.14,30.98,42.31,62.21,5.97,115.06,27.86,160.22,66.05,10.26-11.96,24.45-20.71,35.01-32.53-59.98-53.77-139.22-86.49-226.11-86.49s-165.95,32.64-225.9,86.3c11.18,10.73,22.47,18.58,33.17,31.09Z"/></g><path class="cls-3" d="M657.73,208.32c-13.53,17.73-26.75,35.57-39.68,53.53,37.87,66.39,79.23,105.95,121.79,128.2,45.78-35.58,72.78-77.83,83.32-93.62-1.94-3.43-3.8-6.97-5.64-10.56-3.42-3.8-6.94-7.54-10.58-11.18-25.99-25.99-56.24-46.39-89.93-60.63-22.12-9.36-45.12-15.77-68.73-19.23,3.16,4.49,6.31,8.98,9.43,13.49Z"/></g><path class="cls-1" d="M604.81,760.58c110.48,0,208.69-64.34,255.67-159.16-8.35,7.88-18.62,12.25-29.99,12.67l-.51,.02-.51-.03c-13.92-.69-24.95-6.42-32.15-16.42-1.6,2.78-4.05,5.22-7.25,7.12-4.49,2.73-9.22,4.26-14.87,4.83l-.59,.04c-.44,.02-.87,.03-1.3,.03-7.6,0-13.76-3.4-17.02-9.45l-.49-.91-.11-.33c-4.06,3.21-9.79,5.91-17.76,6.56l-.74,.06-.74-.03c-6.36-.28-21.27-3.43-24.84-26.05-2.31,4.78-4.81,9.08-7.52,12.91,.07,.03,.13,.06,.2,.09l.81,.42c6.88,3.94,10.1,11,8.62,18.9l-.19,.86c-1.45,5.45-4.21,9.74-8.45,13.1-3.66,3-7.89,4.55-12.27,4.55-1.77,0-3.58-.25-5.38-.77l-.83-.24-14.77-6.65c-7.13-2.89-13.28-4.44-18.81-4.73-5.5-.29-10.42-.2-14.63,.27-5.99,.92-11.13,.7-15.27-.68-3.59-1.2-11.77-5.51-10.58-19.72l.1-1.17,.33-1.13c1.4-4.86,4.94-8.34,10.56-10.38-.74-2.15-1.33-4.15-1.83-5.94-7.08-1.68-13.37-4.72-18.77-9.08l-.47-.4c-1.3-1.16-2.51-2.38-3.67-3.64-.57,1.51-1.16,3.06-1.79,4.66-4.37,11.03-9.06,20.34-14.34,28.45-7.43,11.75-16.34,17.7-26.5,17.7l-.76-.02c-13.14-.85-22.56-7.15-26.91-17.67-1.29,1.28-2.79,2.43-4.49,3.41-5.36,3.37-11.62,4.75-17.69,3.92-5.61-.61-10.27-2.96-13.61-6.79-8.63,8.93-19.53,13.87-31.67,14.31l-.51,.02-.51-.03c-13.43-.67-24.18-6-31.39-15.35-8.78,9.59-20.05,14.9-32.66,15.36l-.51,.02-.51-.03c-19.12-.95-32.82-11.37-38.57-29.35-.34-1.04-.65-2.09-.95-3.15-1.15,.2-2.28,.31-3.36,.39l-.86,.03c-4.2,0-8.36-1.28-12.39-3.8,41.79,108.97,146.55,182.37,266,182.37Z"/><g><path class="cls-1" d="M356.17,565.69c-1.6-1.06-2.48-4.43-2.84-10.1-.35-5.67-.18-11.88,.18-18.79,.35-6.92,.71-12.77,1.07-17.73,.35-2.84,.35-4.97,.35-6.03,0-4.25-1.6-7.09-4.97-9.04-3.19-1.77-6.56-2.66-10.63-2.13-3.9,.53-6.74,2.13-9.04,4.97-6.74,10.99-11.7,25-14.54,41.48-.71-4.08-.88-9.4-.53-15.95,.35-6.56,.88-13.12,1.6-19.33,.53-5.5,.88-9.93,1.06-12.94-.18-2.66-1.59-4.61-4.25-6.21-3.02-1.24-5.85-1.6-9.04-.53-3.01,1.07-5.14,4.08-6.2,8.87-2,12.57-2.94,25.84-2.78,39.69-1.64-.31-3.38-.47-5.21-.34-2.66,.18-4.79,.36-6.38,.36-.71,.18-1.24,.18-1.6,.18-.35-5.67-1.07-12.41-1.95-20.21-1.07-7.8-2.3-14-3.55-18.79-1.07-2.48-3.19-4.08-6.92-4.97-3.37-.71-6.91-.53-10.63,.36-3.72,.88-6.38,2.83-7.98,5.67-3.19,7.45-8.15,16.66-14.71,27.65-6.56,11.17-12.94,20.74-19.15,29.25-6.2,8.51-10.28,12.41-12.41,11.88-2.13-2.13-2.13-8.33-.18-19.15,2.13-10.82,5.5-23.05,10.1-36.7,4.79-13.65,9.93-25.71,15.6-36.17,5.67-10.46,10.82-16.31,15.78-17.73,3.01-.18,5.32,1.24,6.38,4.61,1.24,3.37,2.13,7.27,2.66,11.88,.53,4.25,1.42,8.15,2.66,11.52,1.06,3.19,3.01,4.78,5.85,4.78,2.84-.53,5.14-3.54,6.74-9.22,1.59-5.49,1.77-11.7,.53-18.26-2.48-9.4-7.45-15.25-15.07-17.2-7.62-2.3-15.25-1.24-22.87,3.01-11.88,7.62-22.51,21.28-32.26,41.31-9.75,20.21-15.78,39.89-18.26,59.21-2.66,19.33,1.07,31.73,10.82,37.41,6.56,2.48,13.65,.53,20.92-5.67,7.27-6.2,14.36-14.18,21.27-24.11,6.74-9.75,12.59-18.79,17.55-26.95,2.31-3.9,4.43-7.27,6.03-9.75,.35,.35,.53,1.6,.88,4.08,.35,2.13,.71,4.79,.88,7.8,.36,3.02,.53,5.5,.53,7.98,0,2.3-.35,3.72-.89,4.08-15.42,11.17-26.24,24.82-32.44,40.6-5.85,14.89-7.09,26.06-3.72,33.51,3.37,7.45,9.04,10.99,16.84,10.64,7.8-.36,15.42-4.61,22.51-12.76,6.92-8.69,11.52-18.97,14.18-30.67,2.66-11.88,4.25-23.4,4.78-34.21,4.25-2.13,8.15-3.37,11.88-3.72,.41-.1,.76-.21,1.12-.31,.91,17.24,3.01,32.78,6.16,46.58,1.07,2.84,3.19,4.97,6.56,5.5,3.19,.71,6.38,.35,9.4-.89,3.19-1.24,4.79-3.37,4.97-6.56-1.24-20.03,1.6-40.24,8.33-60.63,1.24-3.55,2.13-5.5,2.66-6.03,.71-.53,1.06-.18,1.42,1.24,.35,1.24,.71,3.19,.88,5.5,.18,1.24,.35,2.31,.53,3.55l2.48,16.49c.88,4.78,2.48,7.98,4.78,9.93,2.48,1.77,4.79,2.66,7.09,2.66,2.48-.18,4.25-.53,5.5-1.6,1.06-1.07,.88-1.95-.53-2.84Zm-95.92,7.45c-.35,2.3-.88,5.5-1.77,9.22-.71,3.72-1.6,7.27-2.48,10.82-.89,3.37-1.6,5.85-2.13,7.45-3.72,11.17-7.09,17.37-9.75,18.79-2.66,1.24-4.08-.53-4.43-5.32-.35-4.79,.71-10.99,3.55-18.26,4.08-9.57,9.75-17.9,16.84-25.53,.53-.53,.53,.35,.18,2.83Z"/><path class="cls-1" d="M591.62,540.34c-1.24-.89-2.84-1.07-4.43-.89-1.6,.36-2.66,1.24-3.37,2.48-1.42,4.96-3.72,11.17-6.56,18.08-2.84,7.09-5.85,13.12-8.87,18.44-3.01,5.32-5.67,7.98-7.62,7.98-2.13-.71-3.01-3.19-2.83-7.45,.35-4.43,.88-9.75,1.95-15.95,1.24-7.98,2.13-15.6,2.48-23.4,.35-7.98-.88-14.36-3.72-19.32-6.03-7.8-13.83-9.93-23.58-6.2-9.93,3.55-17.02,13.65-21.28,30.14,0-2.48,.18-6.56,.71-11.7,.71-4.97,.88-9.22,1.06-12.94-.35-3.02-2.3-4.97-5.67-5.67-3.55-.89-7.09-.71-10.63,.18-3.55,1.24-5.5,3.02-6.03,5.67-.13,10.61,.08,20.45,.64,29.53-4.21,10.78-8.34,18.81-12.17,24.36-5.32,7.45-10.28,11.7-15.6,12.59-2.66,.71-5.32-.53-7.8-3.72-2.3-3.37-3.72-9.57-3.9-19.15,12.41-3.55,21.81-10.82,27.83-21.98s7.45-21.8,3.72-31.73c-3.37-7.45-9.04-12.41-17.2-15.07-8.15-2.66-15.42-.89-21.81,5.14-7.62,9.04-12.94,21.63-15.95,37.58-.63,3.39-1.1,6.71-1.42,9.97-4.47,11.8-8.87,20.48-12.94,26.37-5.32,7.45-10.28,11.7-15.6,12.59-2.66,.71-5.32-.53-7.8-3.72-2.3-3.37-3.72-9.57-3.9-19.15,12.41-3.55,21.81-10.82,27.83-21.98,6.03-11.17,7.45-21.8,3.72-31.73-3.37-7.45-9.04-12.41-17.2-15.07-8.15-2.66-15.42-.89-21.81,5.14-7.62,9.04-12.94,21.63-15.95,37.58-3.02,16.13-2.48,30.67,1.77,43.79,4.25,13.3,13.47,20.39,27.83,21.1,9.75-.36,18.08-4.43,24.82-12.06,4.09-4.62,7.68-9.56,10.82-14.8,.46,1.95,.99,3.87,1.6,5.76,4.25,13.3,13.47,20.39,27.83,21.1,9.75-.36,18.08-4.43,24.82-12.06,4.3-4.86,8.06-10.06,11.31-15.61,.94,5.35,2.07,10.32,3.41,14.9,1.42,3.37,3.9,4.96,7.62,5.32,3.55,.53,7.09-.36,10.11-2.31,3.19-1.77,4.61-4.25,4.43-7.62-1.77-11.52-1.24-21.8,1.06-30.85,2.31-9.04,5.32-15.6,8.87-19.68,3.37-4.08,6.03-4.43,7.8-1.07,1.24,4.43,.89,11.88-.88,22.34-1.77,11.52-2.3,22.51-1.24,32.8,1.24,10.46,7.27,15.96,18.26,16.66,5.85,0,11.35-4.08,16.49-12.23,5.32-8.16,9.57-17.02,13.3-26.41s6.03-16.66,7.09-21.81c.35-1.95,0-3.55-1.42-4.25Zm-197.86-15.25c3.55-9.22,6.56-14.36,9.4-15.25,2.83-1.07,3.55,4.25,1.95,15.95-1.24,5.67-3.37,10.46-6.74,14.71-3.37,4.08-6.56,6.56-9.4,7.62,.71-7.98,2.13-15.6,4.79-23.05Zm65.07,0c3.55-9.22,6.56-14.36,9.4-15.25,2.83-1.07,3.55,4.25,1.95,15.95-1.24,5.67-3.37,10.46-6.74,14.71-3.37,4.08-6.56,6.56-9.4,7.62,.71-7.98,2.13-15.6,4.79-23.05Z"/><path class="cls-1" d="M658.07,447.45c-20.21,2.48-35.46,11.17-45.91,26.24-10.46,14.89-15.78,31.02-16.31,48.04-.35,17.2,4.43,30.14,14.54,39.18,5.5,4.43,12.41,7.09,20.56,7.8,.88,2.48,1.6,4.96,2.13,7.09,.88,3.19,1.77,6.03,3.02,9.04,1.24,2.84,3.37,5.85,6.38,9.22-1.07,0-3.19,.18-5.85,.53-2.84,.18-5.5,.71-7.98,1.42-2.48,.71-3.9,1.6-4.26,2.84-.35,4.25,.36,6.73,2.48,7.45,2.13,.71,5.5,.88,9.93,.18,4.61-.53,10.1-.71,16.84-.35,6.73,.35,14.18,2.13,22.87,5.67l14.18,6.38c2.48,.71,4.79,.18,6.92-1.6,2.48-1.95,3.72-4.25,4.43-6.92,.53-2.83-.35-4.96-2.83-6.38-3.37-1.6-9.04-3.37-16.84-5.5,12.41-8.51,21.45-25.17,27.83-49.64,6.2-24.64,5.85-47.69-1.07-69.32-6.91-21.63-23.93-32.09-51.06-31.38Zm34.39,74.28c-1.06,18.08-4.08,33.86-9.22,47.86-4.96,14.18-11.17,21.1-18.08,21.1-2.66,0-4.97-1.42-6.74-4.61-2.13-3.02-3.37-6.38-4.61-10.1-.89-3.55-1.6-6.74-1.77-9.04,4.43-.89,8.69-2.84,12.94-6.03,4.08-3.19,6.56-6.74,7.27-10.82,0-1.42-.71-2.66-2.48-3.37-1.77-.88-3.54-1.42-5.67-1.42-1.95,0-3.19,.71-4.08,1.6-.71,1.95-1.95,3.9-3.55,6.21-1.42,1.95-3.55,3.54-5.67,4.08,0-11.17,.89-20.74,3.02-28.36,1.95-7.62,3.72-13.47,5.14-17.37,1.06-2.48,1.42-4.26,1.42-4.97,0-2.3-1.42-4.08-4.43-5.32-3.19-1.42-6.56-1.95-9.93-1.77-3.37,.35-5.67,1.42-6.92,3.55-6.03,13.47-9.22,31.73-9.75,54.6-9.22-5.32-13.3-15.96-12.41-31.91,.89-15.95,5.32-31.38,12.94-46.27,7.8-14.72,17.37-22.87,28.72-24.46,13.3,0,22.51,6.73,27.48,20.03,5.32,13.3,7.45,28.9,6.38,46.8Z"/><path class="cls-1" d="M786.97,500.99c-2.48-1.07-5.5-1.24-8.51-.71-3.01,.53-5.14,1.77-6.03,3.72-3.02,7.62-6.03,15.95-9.04,25-3.55,10.82-7.09,20.39-10.63,29.07-3.37,8.51-6.38,13.83-9.22,16.13-1.42,.53-2.13-1.77-1.95-6.74,.18-5.32,.71-11.52,1.95-19.32,.88-7.45,2.3-14.89,4.08-21.63,1.77-6.92,3.72-11.88,5.67-14.89,1.06-1.77,.71-3.55-.89-5.14-1.77-1.6-4.25-2.66-7.44-3.55-3.02-.71-6.03-.53-9.04,.18-2.84,.89-4.79,2.84-5.85,6.03-2.31,6.74-4.26,17.02-6.03,30.31-2.13,13.3-2.3,25.53-.88,36.88,1.42,11.17,5.85,17.02,13.83,17.37,6.56-.53,11.52-3.02,14.71-7.62,3.19-4.43,6.03-9.93,7.98-15.78,1.42-3.55,3.02-7.09,4.61-10.28,0,1.24,.18,3.72,.18,7.27,0,4.79,.18,9.75,.35,15.25,.35,5.5,1.07,9.4,1.95,12.06,1.24,2.3,3.72,3.37,7.27,3.19,3.55-.35,6.73-1.24,9.93-3.19,3.02-1.77,4.08-3.9,3.55-6.38-3.02-10.28-4.08-22.69-3.02-37.23,.89-14.53,3.02-29.07,6.03-43.61,.53-3.19-.71-5.14-3.55-6.38Z"/><path class="cls-1" d="M1026.14,540.34c-1.24-.89-2.84-1.07-4.43-.89-1.6,.36-2.66,1.24-3.37,2.48-1.42,4.96-3.72,11.17-6.56,18.08-2.84,7.09-5.85,13.12-8.87,18.44-3.01,5.32-5.67,7.98-7.62,7.98-2.13-.71-3.01-3.19-2.83-7.45,.35-4.43,.88-9.75,1.95-15.95,1.24-7.98,2.13-15.6,2.48-23.4,.35-7.98-.88-14.36-3.72-19.32-6.03-7.8-13.83-9.93-23.58-6.2-9.93,3.55-17.02,13.65-21.28,30.14,0-2.48,.18-6.56,.71-11.7,.71-4.97,.88-9.22,1.06-12.94-.35-3.02-2.3-4.97-5.67-5.67-3.55-.89-7.09-.71-10.63,.18-3.55,1.24-5.5,3.02-6.03,5.67-.13,10.61,.08,20.45,.64,29.53-4.21,10.78-8.34,18.81-12.17,24.36-5.32,7.45-10.28,11.7-15.6,12.59-2.66,.71-5.32-.53-7.8-3.72-2.3-3.37-3.72-9.57-3.9-19.15,12.41-3.55,21.81-10.82,27.83-21.98,6.03-11.17,7.45-21.8,3.72-31.73-3.37-7.45-9.04-12.41-17.2-15.07-8.15-2.66-15.42-.89-21.81,5.14-7.62,9.04-12.94,21.63-15.95,37.58-.63,3.39-1.1,6.71-1.42,9.97-4.47,11.8-8.87,20.48-12.94,26.37-5.32,7.45-10.28,11.7-15.6,12.59-2.66,.71-5.32-.53-7.8-3.72-2.3-3.37-3.72-9.57-3.9-19.15,12.41-3.55,21.81-10.82,27.83-21.98s7.45-21.8,3.72-31.73c-3.37-7.45-9.04-12.41-17.2-15.07-8.15-2.66-15.42-.89-21.81,5.14-7.62,9.04-12.94,21.63-15.95,37.58-3.02,16.13-2.48,30.67,1.77,43.79,4.25,13.3,13.47,20.39,27.83,21.1,9.75-.36,18.08-4.43,24.82-12.06,4.09-4.62,7.68-9.56,10.82-14.8,.46,1.95,.99,3.87,1.6,5.76,4.25,13.3,13.47,20.39,27.83,21.1,9.75-.36,18.08-4.43,24.82-12.06,4.3-4.86,8.06-10.06,11.31-15.61,.94,5.35,2.07,10.32,3.41,14.9,1.42,3.37,3.9,4.96,7.62,5.32,3.55,.53,7.09-.36,10.11-2.31,3.19-1.77,4.61-4.25,4.43-7.62-1.77-11.52-1.24-21.8,1.06-30.85,2.31-9.04,5.32-15.6,8.87-19.68,3.37-4.08,6.03-4.43,7.8-1.07,1.24,4.43,.89,11.88-.88,22.34-1.77,11.52-2.3,22.51-1.24,32.8,1.24,10.46,7.27,15.96,18.26,16.66,5.85,0,11.35-4.08,16.49-12.23,5.32-8.16,9.57-17.02,13.3-26.41,3.72-9.4,6.03-16.66,7.09-21.81,.36-1.95,0-3.55-1.42-4.25Zm-197.86-15.25c3.55-9.22,6.56-14.36,9.4-15.25,2.83-1.07,3.55,4.25,1.95,15.95-1.24,5.67-3.37,10.46-6.74,14.71-3.37,4.08-6.56,6.56-9.4,7.62,.71-7.98,2.13-15.6,4.79-23.05Zm65.07,0c3.55-9.22,6.56-14.36,9.4-15.25,2.83-1.07,3.55,4.25,1.95,15.95-1.24,5.67-3.37,10.46-6.74,14.71-3.37,4.08-6.56,6.56-9.4,7.62,.71-7.98,2.13-15.6,4.79-23.05Z"/></g><path d="M674.95,479.09c-3.1-8.31-7.76-12.03-15.47-12.29-6.98,1.34-13.39,7.41-19.05,18.06-.71,1.39-1.39,2.78-2.03,4.17,1.83-.69,3.94-1.2,6.38-1.46l.61-.05c5.35-.28,10.48,.63,15.24,2.72,10.5,4.4,11.63,12.82,11.63,16.25,0,3.23-1.18,6.78-2.23,9.3-1.37,3.8-3.03,9.46-4.7,15.99l-.07,.25c-.13,.46-.25,.93-.37,1.41,3.37,.11,6.59,.92,9.81,2.48,1.53,.67,2.91,1.54,4.11,2.56,.83-5.52,1.42-11.31,1.78-17.44h0c.96-16.07-.91-30.09-5.55-41.69l-.1-.26Z"/><path class="cls-1" d="M297.58,612.68s-.08-.06-.11-.09c.04,.03,.08,.06,.11,.09Z"/><path class="cls-4" d="M927.23,599.78c-5.51,5.7-11.95,9.77-19.05,12.09-16.34,33.22-37.92,63.38-64.37,89.82-31.05,31.05-67.2,55.42-107.44,72.44-41.66,17.62-85.92,26.56-131.56,26.56s-89.9-8.93-131.56-26.56c-40.25-17.02-76.4-41.4-107.44-72.44-25.4-25.4-46.33-54.23-62.43-85.92-5.74-1.92-10.17-6.23-12.42-12.22l-.28-.75-.18-.78c-.46-2-.89-4.02-1.3-6.08-1.41,5.64-3.27,10.94-5.52,15.92,56.29,120.97,178.91,204.83,321.13,204.83s271.11-88.22,325.32-214.21c-1.05-.8-2.02-1.69-2.9-2.7Z"/><path class="cls-1" d="M905.28,612.71c-.08,.02-.16,.04-.24,.06-.99,.25-2,.46-3.01,.64-.02,0-.04,0-.06,0-.92,.16-1.85,.29-2.79,.39-.23,.03-.45,.05-.68,.07-.97,.1-1.95,.17-2.93,.21l-.51,.02-.51-.03c-8.56-.42-16.02-2.75-22.18-6.8-17.2,34.88-41.21,66.4-70.98,92.52-54.36,47.69-124.17,73.96-196.56,73.96-34.27,0-67.88-5.77-99.88-17.14-30.93-10.99-59.7-26.97-85.5-47.48-36.38-28.92-65.5-66.1-84.98-107.83-1.35,6.29-5.58,11.19-11.97,13.71-5.18,2.11-10.72,2.64-16.05,1.53-.52-.09-1.02-.2-1.52-.33-.03,0-.06-.02-.08-.02-.49-.12-.96-.27-1.43-.42,16.1,31.69,37.03,60.51,62.43,85.92,31.05,31.05,67.2,55.42,107.44,72.44,41.66,17.62,85.92,26.56,131.56,26.56s89.9-8.93,131.56-26.56c40.25-17.02,76.4-41.4,107.44-72.44,26.44-26.44,48.02-56.6,64.37-89.82,0,0,0,0,0,0-.96,.31-1.92,.59-2.9,.84Z"/><path class="cls-4" d="M1041.94,321.56c.4,14.5,.64,24.73,.92,39.22-17.7,8.19-50.61,24.26-90.04,36.71-30.61-164.36-174.77-288.79-348-288.79s-317.38,124.44-347.99,288.8c-39.43-12.45-72.35-28.52-90.05-36.71,.28-14.49,.52-24.72,.92-39.22-19.42-8.37-39.09-16.49-59-24.34,19.36,26.33,38.21,52.9,56.59,79.66,17.07,25.46,33.72,51.09,49.94,76.9,.89-.88,1.79-1.72,2.7-2.54,.1-.09,.19-.17,.29-.26,.8-.71,1.6-1.4,2.42-2.06,.17-.14,.35-.29,.52-.43,.75-.6,1.5-1.17,2.26-1.73,.21-.15,.42-.32,.63-.47,.94-.68,1.89-1.33,2.85-1.94l.63-.38c.59-.33,1.18-.64,1.78-.94,.18-.09,.36-.18,.55-.27,.42-.21,.85-.41,1.28-.61,.19-.09,.39-.18,.58-.27,.49-.22,.99-.43,1.49-.63,.1-.04,.21-.09,.31-.13,.57-.23,1.15-.44,1.72-.63,.22-.08,.44-.15,.66-.22,.38-.12,.75-.24,1.13-.35,.25-.07,.49-.15,.74-.21,.38-.11,.76-.2,1.14-.3,.22-.05,.44-.11,.66-.16,.54-.12,1.08-.24,1.62-.34,.28-.05,.56-.1,.84-.14,.3-.05,.61-.1,.91-.14,.3-.04,.61-.08,.91-.12,.28-.03,.57-.06,.85-.09,.48-.04,.96-.08,1.43-.11,.34-.02,.68-.04,1.02-.05,.34,0,.67,0,1.01,0,.25,0,.49,0,.74,0,.34,0,.68,.02,1.02,.03,.24,.01,.47,.03,.71,.04,1.67,.11,3.34,.31,5.01,.64,.02,0,.03,0,.05,.01,0,0,0,0,0,0,.59,.12,1.17,.24,1.76,.38h0c.65,.16,1.3,.33,1.95,.52,1.89,.5,3.92,1.22,5.96,2.24,.01,0,.02,.01,.04,.02,0,0,0,0,0,0,1.04,.52,2.09,1.12,3.13,1.81,.03,.02,.06,.04,.09,.06,.33,.22,.66,.45,.99,.69,.05,.04,.11,.08,.16,.12,.71,.52,1.41,1.09,2.11,1.71,.06,.06,.13,.11,.19,.17,.3,.27,.59,.55,.89,.84,.05,.05,.1,.1,.15,.15,.34,.34,.67,.68,1,1.05,.04,.04,.08,.09,.11,.13,.28,.31,.57,.64,.84,.97,.08,.09,.15,.18,.22,.27,.29,.36,.58,.73,.87,1.11,.02,.03,.04,.06,.06,.08,.3,.41,.6,.84,.9,1.28,.07,.1,.14,.21,.2,.31,.23,.35,.46,.72,.68,1.09,.07,.11,.14,.23,.21,.34,.28,.47,.55,.95,.81,1.45,.03,.06,.06,.11,.09,.17,.23,.44,.46,.9,.68,1.37,.07,.15,.14,.3,.21,.45,.2,.44,.4,.88,.59,1.34,.05,.11,.09,.22,.14,.33,.23,.56,.45,1.13,.66,1.72,.05,.14,.1,.29,.15,.44,.17,.47,.33,.95,.48,1.44,.06,.18,.11,.35,.17,.53,.19,.64,.38,1.28,.56,1.95l.19,.83c1.6,8.45,1.33,16.45-.79,23.77-.06,.23-.13,.46-.2,.69,2.65,2.05,4.35,4.43,5.43,6.58,3-10.17,9.49-13.9,13.26-15.23l.2-.07c5.7-1.9,11.37-1.64,17.33,.81l.83,.34,.77,.46c4.63,2.78,7.2,6.2,8.57,9.48,2.81-1.58,5.95-2.61,9.41-3.08,6.41-.83,12.27,.32,18.03,3.52l.17,.1c4.18,2.42,7.23,5.83,9.02,9.95,2.33-4.27,4.95-8.13,7.85-11.58l.44-.52,.49-.46c9.53-9,21.49-11.77,33.66-7.79,10.56,3.44,18.37,9.91,23.25,19.23,2.17-3.83,4.58-7.31,7.23-10.45l.44-.52,.49-.46c9.53-9,21.49-11.77,33.66-7.79,10.63,3.46,18.47,9.99,23.35,19.42l.58-.15c5.6-1.4,11.06-1.48,16.21-.23,3.88,.86,7.19,2.67,9.7,5.18,2.68-1.92,5.57-3.45,8.67-4.57,14.63-5.54,27.8-1.96,37.11,10.08l.5,.65,.41,.72c3.29,5.76,5.04,12.46,5.31,20.38,2.34-3.4,5.76-5.77,9.79-6.8-.11-2.12-.15-4.29-.11-6.51v-.13c.62-19.6,6.83-37.94,18.47-54.5,12.34-17.79,30.59-28.31,54.19-31.2l.57-.07,.57-.02c40.97-1.08,56.72,20.96,62.69,39.64,2.14,6.7,3.69,13.55,4.69,20.54,2.07-1.77,4.5-3.12,7.22-3.98l.83-.23c5.05-1.19,9.92-1.25,14.48-.18l.47,.12c3.33,.93,8.23,2.58,12.21,6.17l.45,.42c.3,.3,.58,.6,.85,.91,1.49-3.23,5.37-8.76,14.74-10.41,5.46-.97,10.74-.45,15.26,1.49l.09,.04c4.81,2.11,8.18,5.69,9.76,10.06,1.79-2.9,3.73-5.6,5.82-8.08l.44-.52,.49-.46c9.53-9,21.49-11.77,33.66-7.79,10.56,3.44,18.37,9.91,23.25,19.23,2.17-3.83,4.58-7.31,7.23-10.45l.44-.52,.49-.46c9.53-9,21.49-11.77,33.66-7.79,10.63,3.46,18.47,9.99,23.35,19.42l.05-.02,.53-.13c.78-.2,1.56-.36,2.33-.5,.18-.03,.35-.06,.53-.09,.62-.11,1.24-.2,1.86-.27,.15-.02,.31-.03,.46-.05,.67-.07,1.33-.12,2-.15,.09,0,.18,0,.27-.01,1.31-.05,2.6-.02,3.88,.08,.07,0,.15,.01,.22,.02h0c.41,.04,.83,.08,1.24,.13,0,0,0,0,0,0,.26,.03,.51,.07,.76,.11,0,0,0,0,0,0,.89,.14,1.78,.3,2.66,.51,.46,.1,.91,.22,1.36,.35h0c.31,.09,.6,.19,.9,.29,.13,.04,.26,.08,.39,.13,0,0,0,0,0,0,.68,.24,1.33,.52,1.96,.83,0,0,0,0,0,0,.1,.05,.2,.1,.3,.15,.39,.2,.78,.41,1.15,.63,.02,.01,.05,.03,.07,.04,0,0,0,0,0,0,.28,.17,.55,.34,.81,.52h0c.07,.05,.14,.1,.21,.14h0c.29,.2,.57,.4,.84,.61h0s.07,.06,.11,.09h0c.55,.44,1.09,.9,1.58,1.39,.6-.43,1.21-.83,1.83-1.22,.3-.19,.61-.36,.92-.54,.3-.17,.59-.35,.9-.51,.41-.23,.84-.45,1.26-.66,.17-.08,.34-.17,.51-.25,.5-.24,1.01-.47,1.53-.69,25.72-42.71,52.59-84.98,80.62-126.77,18.38-26.77,37.23-53.33,56.59-79.66-19.91,7.85-39.58,15.97-59,24.34Zm-727.52,89.68c-14.44-2.22-28.6-5.42-42.17-9.18,4.39-24.29,11.43-48,21.12-70.92,11.95-28.24,27.53-54.46,46.48-78.32,12.18,13.4,26.88,30.2,38.53,43.61-21,48.2-42.59,87.57-63.96,114.81Zm508.75-114.81c-10.55,15.79-37.54,58.05-83.32,93.62-42.56-22.25-83.92-61.81-121.79-128.2,12.92-17.96,26.14-35.8,39.68-53.53-17.08-24.66-34.71-49.14-52.91-73.4h-.01c-18.19,24.27-35.83,48.74-52.91,73.4,13.53,17.73,26.75,35.57,39.68,53.53-37.87,66.39-79.23,105.95-121.79,128.2-45.78-35.58-72.41-77.28-82.96-93.08,8.67-15.33,19.63-36.58,28.71-51.81-10.59-12.38-25.12-23.71-36.18-34.28,27.86-25,59.37-45.04,93.9-59.64,41.66-17.62,85.92-26.56,131.56-26.56s89.9,8.93,131.56,26.56c34.55,14.61,66.06,34.66,93.94,59.67-12.48,12.21-27.45,24.13-38.18,36.69,9.07,15.23,22.37,33.49,31.04,48.82Zm75.71,114.21c-25.58-33.85-45.3-65.41-67.63-114.21,10.38-11.95,26.54-29.98,38.7-43.4,18.87,23.8,34.39,49.95,46.3,78.1,9.69,22.92,16.74,46.63,21.14,70.92-13.58,3.76-24.07,6.36-38.52,8.58Z"/><path class="cls-3" d="M469.79,390.05c42.56-22.25,83.92-61.81,121.79-128.2-12.92-17.96-26.14-35.8-39.68-53.53,2.95-4.26,5.93-8.5,8.92-12.75-21.96,3.59-43.37,9.75-64.02,18.48-33.69,14.25-63.94,34.65-89.93,60.63-7.11,7.11-13.78,14.55-20.05,22.28,10.79,16.19,37.68,57.89,82.96,93.08Z"/><rect class="cls-2" y="767.76" width="108.69" height="108.69"/><rect class="cls-2" x="1099.72" y="83.99" width="108.69" height="108.69"/></svg>